<mxfile host="Electron" agent="Mozilla/5.0 (Windows NT 10.0; Win64; x64) AppleWebKit/537.36 (KHTML, like Gecko) draw.io/28.2.5 Chrome/138.0.7204.251 Electron/37.6.1 Safari/537.36" version="28.2.5" pages="2">
  <diagram name="Menu Utama &amp; User Biasa" id="hgNfvr6QDyWRWZUksVWT">
    <mxGraphModel dx="1453" dy="962" grid="1" gridSize="10" guides="1" tooltips="1" connect="1" arrows="1" fold="1" page="1" pageScale="1" pageWidth="850" pageHeight="1100" background="none" math="0" shadow="0">
      <root>
        <mxCell id="xoxCfO0x_ZQ4_q8p7-6C-0" />
        <mxCell id="xoxCfO0x_ZQ4_q8p7-6C-1" parent="xoxCfO0x_ZQ4_q8p7-6C-0" />
        <mxCell id="xoxCfO0x_ZQ4_q8p7-6C-2" value="" style="edgeStyle=orthogonalEdgeStyle;rounded=0;orthogonalLoop=1;jettySize=auto;html=1;" parent="xoxCfO0x_ZQ4_q8p7-6C-1" source="xoxCfO0x_ZQ4_q8p7-6C-3" target="xoxCfO0x_ZQ4_q8p7-6C-7" edge="1">
          <mxGeometry relative="1" as="geometry" />
        </mxCell>
        <mxCell id="xoxCfO0x_ZQ4_q8p7-6C-3" value="start" style="ellipse;whiteSpace=wrap;html=1;" parent="xoxCfO0x_ZQ4_q8p7-6C-1" vertex="1">
          <mxGeometry x="375" width="60" height="40" as="geometry" />
        </mxCell>
        <mxCell id="xoxCfO0x_ZQ4_q8p7-6C-4" value="end" style="ellipse;whiteSpace=wrap;html=1;" parent="xoxCfO0x_ZQ4_q8p7-6C-1" vertex="1">
          <mxGeometry x="375" y="1280" width="60" height="40" as="geometry" />
        </mxCell>
        <mxCell id="xoxCfO0x_ZQ4_q8p7-6C-5" value="" style="edgeStyle=orthogonalEdgeStyle;rounded=0;orthogonalLoop=1;jettySize=auto;html=1;" parent="xoxCfO0x_ZQ4_q8p7-6C-1" source="xoxCfO0x_ZQ4_q8p7-6C-7" target="xoxCfO0x_ZQ4_q8p7-6C-25" edge="1">
          <mxGeometry relative="1" as="geometry" />
        </mxCell>
        <mxCell id="xoxCfO0x_ZQ4_q8p7-6C-7" value="Output Tampilan&lt;div&gt;Menu Utama&lt;/div&gt;" style="shape=parallelogram;perimeter=parallelogramPerimeter;whiteSpace=wrap;html=1;fixedSize=1;" parent="xoxCfO0x_ZQ4_q8p7-6C-1" vertex="1">
          <mxGeometry x="345" y="45" width="120" height="60" as="geometry" />
        </mxCell>
        <mxCell id="xoxCfO0x_ZQ4_q8p7-6C-8" value="" style="edgeStyle=orthogonalEdgeStyle;rounded=0;orthogonalLoop=1;jettySize=auto;html=1;" parent="xoxCfO0x_ZQ4_q8p7-6C-1" source="xoxCfO0x_ZQ4_q8p7-6C-12" target="xoxCfO0x_ZQ4_q8p7-6C-48" edge="1">
          <mxGeometry relative="1" as="geometry" />
        </mxCell>
        <mxCell id="xoxCfO0x_ZQ4_q8p7-6C-9" value="True" style="edgeLabel;html=1;align=center;verticalAlign=middle;resizable=0;points=[];" parent="xoxCfO0x_ZQ4_q8p7-6C-8" vertex="1" connectable="0">
          <mxGeometry x="-0.3429" y="-2" relative="1" as="geometry">
            <mxPoint as="offset" />
          </mxGeometry>
        </mxCell>
        <mxCell id="xoxCfO0x_ZQ4_q8p7-6C-10" value="" style="edgeStyle=orthogonalEdgeStyle;rounded=0;orthogonalLoop=1;jettySize=auto;html=1;" parent="xoxCfO0x_ZQ4_q8p7-6C-1" source="xoxCfO0x_ZQ4_q8p7-6C-12" target="xoxCfO0x_ZQ4_q8p7-6C-17" edge="1">
          <mxGeometry relative="1" as="geometry">
            <Array as="points">
              <mxPoint x="500" y="330" />
              <mxPoint x="500" y="155" />
            </Array>
          </mxGeometry>
        </mxCell>
        <mxCell id="xoxCfO0x_ZQ4_q8p7-6C-11" value="False" style="edgeLabel;html=1;align=center;verticalAlign=middle;resizable=0;points=[];" parent="xoxCfO0x_ZQ4_q8p7-6C-10" vertex="1" connectable="0">
          <mxGeometry x="-0.0734" relative="1" as="geometry">
            <mxPoint x="-21" y="72" as="offset" />
          </mxGeometry>
        </mxCell>
        <mxCell id="xoxCfO0x_ZQ4_q8p7-6C-12" value="&lt;div&gt;&lt;span style=&quot;background-color: transparent; color: light-dark(rgb(0, 0, 0), rgb(255, 255, 255));&quot;&gt;If pilihan == 1&lt;/span&gt;&lt;/div&gt;&lt;div&gt;(Login)&lt;/div&gt;" style="rhombus;whiteSpace=wrap;html=1;" parent="xoxCfO0x_ZQ4_q8p7-6C-1" vertex="1">
          <mxGeometry x="355" y="280" width="100" height="100" as="geometry" />
        </mxCell>
        <mxCell id="xoxCfO0x_ZQ4_q8p7-6C-13" value="" style="edgeStyle=orthogonalEdgeStyle;rounded=0;orthogonalLoop=1;jettySize=auto;html=1;" parent="xoxCfO0x_ZQ4_q8p7-6C-1" source="xoxCfO0x_ZQ4_q8p7-6C-17" target="xoxCfO0x_ZQ4_q8p7-6C-22" edge="1">
          <mxGeometry relative="1" as="geometry" />
        </mxCell>
        <mxCell id="xoxCfO0x_ZQ4_q8p7-6C-14" value="False" style="edgeLabel;html=1;align=center;verticalAlign=middle;resizable=0;points=[];" parent="xoxCfO0x_ZQ4_q8p7-6C-13" vertex="1" connectable="0">
          <mxGeometry x="0.0083" y="2" relative="1" as="geometry">
            <mxPoint x="-4" as="offset" />
          </mxGeometry>
        </mxCell>
        <mxCell id="xoxCfO0x_ZQ4_q8p7-6C-15" value="" style="edgeStyle=orthogonalEdgeStyle;rounded=0;orthogonalLoop=1;jettySize=auto;html=1;" parent="xoxCfO0x_ZQ4_q8p7-6C-1" source="xoxCfO0x_ZQ4_q8p7-6C-17" target="xoxCfO0x_ZQ4_q8p7-6C-34" edge="1">
          <mxGeometry relative="1" as="geometry" />
        </mxCell>
        <mxCell id="xoxCfO0x_ZQ4_q8p7-6C-16" value="True" style="edgeLabel;html=1;align=center;verticalAlign=middle;resizable=0;points=[];" parent="xoxCfO0x_ZQ4_q8p7-6C-15" vertex="1" connectable="0">
          <mxGeometry x="-0.3944" y="2" relative="1" as="geometry">
            <mxPoint x="-3" y="2" as="offset" />
          </mxGeometry>
        </mxCell>
        <mxCell id="xoxCfO0x_ZQ4_q8p7-6C-17" value="&lt;div&gt;&lt;span style=&quot;background-color: transparent; color: light-dark(rgb(0, 0, 0), rgb(255, 255, 255));&quot;&gt;If pilihan == 2&lt;/span&gt;&lt;/div&gt;&lt;div&gt;(Register)&lt;/div&gt;" style="rhombus;whiteSpace=wrap;html=1;" parent="xoxCfO0x_ZQ4_q8p7-6C-1" vertex="1">
          <mxGeometry x="539.96" y="105" width="100" height="100" as="geometry" />
        </mxCell>
        <mxCell id="xoxCfO0x_ZQ4_q8p7-6C-20" value="" style="edgeStyle=orthogonalEdgeStyle;rounded=0;orthogonalLoop=1;jettySize=auto;html=1;" parent="xoxCfO0x_ZQ4_q8p7-6C-1" source="xoxCfO0x_ZQ4_q8p7-6C-22" target="xoxCfO0x_ZQ4_q8p7-6C-31" edge="1">
          <mxGeometry relative="1" as="geometry" />
        </mxCell>
        <mxCell id="xoxCfO0x_ZQ4_q8p7-6C-21" value="True" style="edgeLabel;html=1;align=center;verticalAlign=middle;resizable=0;points=[];" parent="xoxCfO0x_ZQ4_q8p7-6C-20" vertex="1" connectable="0">
          <mxGeometry x="-0.6978" y="-3" relative="1" as="geometry">
            <mxPoint x="1" y="9" as="offset" />
          </mxGeometry>
        </mxCell>
        <mxCell id="Xyyz1zmZMTcuCXvjhfWz-2" value="False" style="edgeStyle=orthogonalEdgeStyle;rounded=0;orthogonalLoop=1;jettySize=auto;html=1;" edge="1" parent="xoxCfO0x_ZQ4_q8p7-6C-1" source="xoxCfO0x_ZQ4_q8p7-6C-22" target="Xyyz1zmZMTcuCXvjhfWz-0">
          <mxGeometry relative="1" as="geometry" />
        </mxCell>
        <mxCell id="xoxCfO0x_ZQ4_q8p7-6C-22" value="&lt;div&gt;&lt;span style=&quot;background-color: transparent; color: light-dark(rgb(0, 0, 0), rgb(255, 255, 255));&quot;&gt;If pilihan == 3&lt;/span&gt;&lt;/div&gt;&lt;div&gt;(Lihat Event)&lt;/div&gt;" style="rhombus;whiteSpace=wrap;html=1;" parent="xoxCfO0x_ZQ4_q8p7-6C-1" vertex="1">
          <mxGeometry x="940.0000000000005" y="105" width="100" height="100" as="geometry" />
        </mxCell>
        <mxCell id="xoxCfO0x_ZQ4_q8p7-6C-23" value="" style="edgeStyle=orthogonalEdgeStyle;rounded=0;orthogonalLoop=1;jettySize=auto;html=1;" parent="xoxCfO0x_ZQ4_q8p7-6C-1" source="xoxCfO0x_ZQ4_q8p7-6C-25" target="xoxCfO0x_ZQ4_q8p7-6C-12" edge="1">
          <mxGeometry relative="1" as="geometry" />
        </mxCell>
        <mxCell id="xoxCfO0x_ZQ4_q8p7-6C-24" style="edgeStyle=orthogonalEdgeStyle;rounded=0;orthogonalLoop=1;jettySize=auto;html=1;" parent="xoxCfO0x_ZQ4_q8p7-6C-1" edge="1">
          <mxGeometry relative="1" as="geometry">
            <mxPoint x="362" y="198.77777777777777" as="targetPoint" />
            <mxPoint x="332" y="199" as="sourcePoint" />
          </mxGeometry>
        </mxCell>
        <mxCell id="xoxCfO0x_ZQ4_q8p7-6C-25" value="Input pilihan" style="shape=parallelogram;perimeter=parallelogramPerimeter;whiteSpace=wrap;html=1;fixedSize=1;" parent="xoxCfO0x_ZQ4_q8p7-6C-1" vertex="1">
          <mxGeometry x="345" y="190" width="120" height="60" as="geometry" />
        </mxCell>
        <mxCell id="xoxCfO0x_ZQ4_q8p7-6C-27" style="edgeStyle=orthogonalEdgeStyle;rounded=0;orthogonalLoop=1;jettySize=auto;html=1;entryX=0.921;entryY=0.417;entryDx=0;entryDy=0;entryPerimeter=0;" parent="xoxCfO0x_ZQ4_q8p7-6C-1" source="xoxCfO0x_ZQ4_q8p7-6C-28" target="xoxCfO0x_ZQ4_q8p7-6C-7" edge="1">
          <mxGeometry relative="1" as="geometry">
            <Array as="points">
              <mxPoint x="1370" y="70" />
            </Array>
          </mxGeometry>
        </mxCell>
        <mxCell id="xoxCfO0x_ZQ4_q8p7-6C-28" value="Output Pilihan&lt;div&gt;Tidak Valid&lt;/div&gt;" style="shape=parallelogram;perimeter=parallelogramPerimeter;whiteSpace=wrap;html=1;fixedSize=1;" parent="xoxCfO0x_ZQ4_q8p7-6C-1" vertex="1">
          <mxGeometry x="1300.0000000000005" y="125" width="120" height="60" as="geometry" />
        </mxCell>
        <mxCell id="pFRPXXdesja61kGtYfZB-3" style="edgeStyle=orthogonalEdgeStyle;rounded=0;orthogonalLoop=1;jettySize=auto;html=1;exitX=0.5;exitY=1;exitDx=0;exitDy=0;entryX=0;entryY=0.25;entryDx=0;entryDy=0;" edge="1" parent="xoxCfO0x_ZQ4_q8p7-6C-1" source="xoxCfO0x_ZQ4_q8p7-6C-31" target="xoxCfO0x_ZQ4_q8p7-6C-7">
          <mxGeometry relative="1" as="geometry">
            <Array as="points">
              <mxPoint x="990" y="330" />
              <mxPoint x="1450" y="330" />
              <mxPoint x="1450" y="1260" />
              <mxPoint x="220" y="1260" />
              <mxPoint x="220" y="64" />
            </Array>
          </mxGeometry>
        </mxCell>
        <mxCell id="xoxCfO0x_ZQ4_q8p7-6C-31" value="&amp;nbsp; &amp;nbsp;Output Tampilan&amp;nbsp;&lt;div&gt;Daftar Event&lt;/div&gt;" style="shape=parallelogram;perimeter=parallelogramPerimeter;whiteSpace=wrap;html=1;fixedSize=1;" parent="xoxCfO0x_ZQ4_q8p7-6C-1" vertex="1">
          <mxGeometry x="930.3700000000005" y="245" width="120" height="60" as="geometry" />
        </mxCell>
        <mxCell id="xoxCfO0x_ZQ4_q8p7-6C-32" style="edgeStyle=orthogonalEdgeStyle;rounded=0;orthogonalLoop=1;jettySize=auto;html=1;" parent="xoxCfO0x_ZQ4_q8p7-6C-1" edge="1">
          <mxGeometry relative="1" as="geometry">
            <mxPoint x="546.46" y="253.77777777777777" as="targetPoint" />
            <mxPoint x="516.46" y="254" as="sourcePoint" />
          </mxGeometry>
        </mxCell>
        <mxCell id="xoxCfO0x_ZQ4_q8p7-6C-33" value="" style="edgeStyle=orthogonalEdgeStyle;rounded=0;orthogonalLoop=1;jettySize=auto;html=1;" parent="xoxCfO0x_ZQ4_q8p7-6C-1" source="xoxCfO0x_ZQ4_q8p7-6C-34" target="xoxCfO0x_ZQ4_q8p7-6C-82" edge="1">
          <mxGeometry relative="1" as="geometry" />
        </mxCell>
        <mxCell id="xoxCfO0x_ZQ4_q8p7-6C-34" value="Input Username&lt;div&gt;&amp;amp; Password Baru&lt;/div&gt;" style="shape=parallelogram;perimeter=parallelogramPerimeter;whiteSpace=wrap;html=1;fixedSize=1;" parent="xoxCfO0x_ZQ4_q8p7-6C-1" vertex="1">
          <mxGeometry x="529.96" y="245" width="120" height="60" as="geometry" />
        </mxCell>
        <mxCell id="xoxCfO0x_ZQ4_q8p7-6C-35" value="" style="edgeStyle=orthogonalEdgeStyle;rounded=0;orthogonalLoop=1;jettySize=auto;html=1;" parent="xoxCfO0x_ZQ4_q8p7-6C-1" source="xoxCfO0x_ZQ4_q8p7-6C-39" target="xoxCfO0x_ZQ4_q8p7-6C-42" edge="1">
          <mxGeometry relative="1" as="geometry" />
        </mxCell>
        <mxCell id="xoxCfO0x_ZQ4_q8p7-6C-36" value="True" style="edgeLabel;html=1;align=center;verticalAlign=middle;resizable=0;points=[];" parent="xoxCfO0x_ZQ4_q8p7-6C-35" vertex="1" connectable="0">
          <mxGeometry x="-0.3119" y="-2" relative="1" as="geometry">
            <mxPoint as="offset" />
          </mxGeometry>
        </mxCell>
        <mxCell id="xoxCfO0x_ZQ4_q8p7-6C-37" value="" style="edgeStyle=orthogonalEdgeStyle;rounded=0;orthogonalLoop=1;jettySize=auto;html=1;" parent="xoxCfO0x_ZQ4_q8p7-6C-1" source="xoxCfO0x_ZQ4_q8p7-6C-39" target="xoxCfO0x_ZQ4_q8p7-6C-45" edge="1">
          <mxGeometry relative="1" as="geometry" />
        </mxCell>
        <mxCell id="xoxCfO0x_ZQ4_q8p7-6C-38" value="False" style="edgeLabel;html=1;align=center;verticalAlign=middle;resizable=0;points=[];" parent="xoxCfO0x_ZQ4_q8p7-6C-37" vertex="1" connectable="0">
          <mxGeometry x="0.1501" y="-1" relative="1" as="geometry">
            <mxPoint x="-7" as="offset" />
          </mxGeometry>
        </mxCell>
        <mxCell id="xoxCfO0x_ZQ4_q8p7-6C-39" value="If Username &amp;amp;&lt;div&gt;Password Sudah&lt;/div&gt;&lt;div&gt;&amp;nbsp;Ada&lt;/div&gt;" style="rhombus;whiteSpace=wrap;html=1;" parent="xoxCfO0x_ZQ4_q8p7-6C-1" vertex="1">
          <mxGeometry x="699.96" y="325" width="120" height="120" as="geometry" />
        </mxCell>
        <mxCell id="xoxCfO0x_ZQ4_q8p7-6C-40" style="edgeStyle=orthogonalEdgeStyle;rounded=0;orthogonalLoop=1;jettySize=auto;html=1;exitX=1;exitY=1;exitDx=0;exitDy=0;" parent="xoxCfO0x_ZQ4_q8p7-6C-1" source="xoxCfO0x_ZQ4_q8p7-6C-42" edge="1">
          <mxGeometry relative="1" as="geometry">
            <mxPoint x="849.96" y="536" as="targetPoint" />
          </mxGeometry>
        </mxCell>
        <mxCell id="4gpclT1XQpPpyx8Y4bg1-0" style="edgeStyle=orthogonalEdgeStyle;rounded=0;orthogonalLoop=1;jettySize=auto;html=1;exitX=0.5;exitY=1;exitDx=0;exitDy=0;entryX=0;entryY=0.25;entryDx=0;entryDy=0;" edge="1" parent="xoxCfO0x_ZQ4_q8p7-6C-1" source="xoxCfO0x_ZQ4_q8p7-6C-42" target="xoxCfO0x_ZQ4_q8p7-6C-7">
          <mxGeometry relative="1" as="geometry">
            <mxPoint x="1100" y="380" as="targetPoint" />
            <Array as="points">
              <mxPoint x="760" y="570" />
              <mxPoint x="1450" y="570" />
              <mxPoint x="1450" y="1260" />
              <mxPoint x="220" y="1260" />
              <mxPoint x="220" y="64" />
            </Array>
          </mxGeometry>
        </mxCell>
        <mxCell id="xoxCfO0x_ZQ4_q8p7-6C-42" value="Output&amp;nbsp;&lt;div&gt;&lt;span style=&quot;background-color: transparent; color: light-dark(rgb(0, 0, 0), rgb(255, 255, 255));&quot;&gt;Username Sudah&lt;/span&gt;&lt;div&gt;Digunakan&lt;/div&gt;&lt;/div&gt;" style="shape=parallelogram;perimeter=parallelogramPerimeter;whiteSpace=wrap;html=1;fixedSize=1;" parent="xoxCfO0x_ZQ4_q8p7-6C-1" vertex="1">
          <mxGeometry x="699.96" y="484.9988888888888" width="120" height="60" as="geometry" />
        </mxCell>
        <mxCell id="xoxCfO0x_ZQ4_q8p7-6C-43" style="edgeStyle=orthogonalEdgeStyle;rounded=0;orthogonalLoop=1;jettySize=auto;html=1;exitX=1;exitY=1;exitDx=0;exitDy=0;" parent="xoxCfO0x_ZQ4_q8p7-6C-1" source="xoxCfO0x_ZQ4_q8p7-6C-45" edge="1">
          <mxGeometry relative="1" as="geometry">
            <mxPoint x="999.9600000000005" y="406" as="targetPoint" />
          </mxGeometry>
        </mxCell>
        <mxCell id="zzvHTyrO_NgbMyNt_N_X-6" style="edgeStyle=orthogonalEdgeStyle;rounded=0;orthogonalLoop=1;jettySize=auto;html=1;exitX=1;exitY=0.5;exitDx=0;exitDy=0;entryX=0;entryY=0.25;entryDx=0;entryDy=0;" edge="1" parent="xoxCfO0x_ZQ4_q8p7-6C-1" source="xoxCfO0x_ZQ4_q8p7-6C-45" target="xoxCfO0x_ZQ4_q8p7-6C-7">
          <mxGeometry relative="1" as="geometry">
            <mxPoint x="247.33333333333334" y="1050" as="targetPoint" />
            <Array as="points">
              <mxPoint x="1450" y="385" />
              <mxPoint x="1450" y="1260" />
              <mxPoint x="220" y="1260" />
              <mxPoint x="220" y="64" />
            </Array>
          </mxGeometry>
        </mxCell>
        <mxCell id="MhJxfwGraKWS8cRXwtq--1" style="edgeStyle=orthogonalEdgeStyle;rounded=0;orthogonalLoop=1;jettySize=auto;html=1;exitX=1;exitY=1;exitDx=0;exitDy=0;" edge="1" parent="xoxCfO0x_ZQ4_q8p7-6C-1" source="xoxCfO0x_ZQ4_q8p7-6C-45">
          <mxGeometry relative="1" as="geometry">
            <mxPoint x="1070" y="407" as="targetPoint" />
          </mxGeometry>
        </mxCell>
        <mxCell id="xoxCfO0x_ZQ4_q8p7-6C-45" value="Output Akun&lt;div&gt;Berhasil Dibuat&lt;/div&gt;" style="shape=parallelogram;perimeter=parallelogramPerimeter;whiteSpace=wrap;html=1;fixedSize=1;" parent="xoxCfO0x_ZQ4_q8p7-6C-1" vertex="1">
          <mxGeometry x="930" y="354.9988888888888" width="120" height="60" as="geometry" />
        </mxCell>
        <mxCell id="xoxCfO0x_ZQ4_q8p7-6C-46" style="edgeStyle=orthogonalEdgeStyle;rounded=0;orthogonalLoop=1;jettySize=auto;html=1;" parent="xoxCfO0x_ZQ4_q8p7-6C-1" edge="1">
          <mxGeometry relative="1" as="geometry">
            <mxPoint x="362.25" y="426.77777777777777" as="targetPoint" />
            <mxPoint x="332.25" y="427" as="sourcePoint" />
          </mxGeometry>
        </mxCell>
        <mxCell id="xoxCfO0x_ZQ4_q8p7-6C-47" value="" style="edgeStyle=orthogonalEdgeStyle;rounded=0;orthogonalLoop=1;jettySize=auto;html=1;" parent="xoxCfO0x_ZQ4_q8p7-6C-1" source="xoxCfO0x_ZQ4_q8p7-6C-48" target="xoxCfO0x_ZQ4_q8p7-6C-53" edge="1">
          <mxGeometry relative="1" as="geometry" />
        </mxCell>
        <mxCell id="xoxCfO0x_ZQ4_q8p7-6C-48" value="Input Username&lt;div&gt;&amp;amp; Password&lt;/div&gt;" style="shape=parallelogram;perimeter=parallelogramPerimeter;whiteSpace=wrap;html=1;fixedSize=1;" parent="xoxCfO0x_ZQ4_q8p7-6C-1" vertex="1">
          <mxGeometry x="345" y="420" width="120" height="60" as="geometry" />
        </mxCell>
        <mxCell id="xoxCfO0x_ZQ4_q8p7-6C-51" style="edgeStyle=orthogonalEdgeStyle;rounded=0;orthogonalLoop=1;jettySize=auto;html=1;entryX=0;entryY=0.5;entryDx=0;entryDy=0;" parent="xoxCfO0x_ZQ4_q8p7-6C-1" source="xoxCfO0x_ZQ4_q8p7-6C-53" target="xoxCfO0x_ZQ4_q8p7-6C-58" edge="1">
          <mxGeometry relative="1" as="geometry">
            <mxPoint x="1680" y="590" as="targetPoint" />
          </mxGeometry>
        </mxCell>
        <mxCell id="xoxCfO0x_ZQ4_q8p7-6C-52" value="False" style="edgeLabel;html=1;align=center;verticalAlign=middle;resizable=0;points=[];" parent="xoxCfO0x_ZQ4_q8p7-6C-51" vertex="1" connectable="0">
          <mxGeometry x="-0.9623" relative="1" as="geometry">
            <mxPoint x="13" as="offset" />
          </mxGeometry>
        </mxCell>
        <mxCell id="qxfv4womMg4prEkhpnnU-1" value="" style="edgeStyle=orthogonalEdgeStyle;rounded=0;orthogonalLoop=1;jettySize=auto;html=1;" parent="xoxCfO0x_ZQ4_q8p7-6C-1" source="xoxCfO0x_ZQ4_q8p7-6C-53" target="qxfv4womMg4prEkhpnnU-0" edge="1">
          <mxGeometry relative="1" as="geometry" />
        </mxCell>
        <mxCell id="qxfv4womMg4prEkhpnnU-2" value="True" style="edgeLabel;html=1;align=center;verticalAlign=middle;resizable=0;points=[];" parent="qxfv4womMg4prEkhpnnU-1" vertex="1" connectable="0">
          <mxGeometry x="-0.1642" y="3" relative="1" as="geometry">
            <mxPoint as="offset" />
          </mxGeometry>
        </mxCell>
        <mxCell id="xoxCfO0x_ZQ4_q8p7-6C-53" value="If Akun Admin" style="rhombus;whiteSpace=wrap;html=1;" parent="xoxCfO0x_ZQ4_q8p7-6C-1" vertex="1">
          <mxGeometry x="355" y="570" width="100" height="100" as="geometry" />
        </mxCell>
        <mxCell id="xoxCfO0x_ZQ4_q8p7-6C-54" value="" style="edgeStyle=orthogonalEdgeStyle;rounded=0;orthogonalLoop=1;jettySize=auto;html=1;" parent="xoxCfO0x_ZQ4_q8p7-6C-1" source="xoxCfO0x_ZQ4_q8p7-6C-58" target="xoxCfO0x_ZQ4_q8p7-6C-61" edge="1">
          <mxGeometry relative="1" as="geometry" />
        </mxCell>
        <mxCell id="xoxCfO0x_ZQ4_q8p7-6C-55" value="False" style="edgeLabel;html=1;align=center;verticalAlign=middle;resizable=0;points=[];" parent="xoxCfO0x_ZQ4_q8p7-6C-54" vertex="1" connectable="0">
          <mxGeometry x="-0.1786" y="1" relative="1" as="geometry">
            <mxPoint as="offset" />
          </mxGeometry>
        </mxCell>
        <mxCell id="xoxCfO0x_ZQ4_q8p7-6C-56" value="" style="edgeStyle=orthogonalEdgeStyle;rounded=0;orthogonalLoop=1;jettySize=auto;html=1;" parent="xoxCfO0x_ZQ4_q8p7-6C-1" source="xoxCfO0x_ZQ4_q8p7-6C-58" target="xoxCfO0x_ZQ4_q8p7-6C-64" edge="1">
          <mxGeometry relative="1" as="geometry" />
        </mxCell>
        <mxCell id="xoxCfO0x_ZQ4_q8p7-6C-57" value="True" style="edgeLabel;html=1;align=center;verticalAlign=middle;resizable=0;points=[];" parent="xoxCfO0x_ZQ4_q8p7-6C-56" vertex="1" connectable="0">
          <mxGeometry x="-0.3636" relative="1" as="geometry">
            <mxPoint as="offset" />
          </mxGeometry>
        </mxCell>
        <mxCell id="xoxCfO0x_ZQ4_q8p7-6C-58" value="If Akun&lt;div&gt;User Biasa&lt;/div&gt;" style="rhombus;whiteSpace=wrap;html=1;" parent="xoxCfO0x_ZQ4_q8p7-6C-1" vertex="1">
          <mxGeometry x="518.3700000000005" y="570" width="100" height="100" as="geometry" />
        </mxCell>
        <mxCell id="xoxCfO0x_ZQ4_q8p7-6C-59" style="edgeStyle=orthogonalEdgeStyle;rounded=0;orthogonalLoop=1;jettySize=auto;html=1;exitX=1;exitY=1;exitDx=0;exitDy=0;" parent="xoxCfO0x_ZQ4_q8p7-6C-1" source="xoxCfO0x_ZQ4_q8p7-6C-61" edge="1">
          <mxGeometry relative="1" as="geometry">
            <mxPoint x="833.37" y="641.3650793650794" as="targetPoint" />
          </mxGeometry>
        </mxCell>
        <mxCell id="xoxCfO0x_ZQ4_q8p7-6C-61" value="Output&amp;nbsp;&lt;div&gt;&lt;span style=&quot;background-color: transparent; color: light-dark(rgb(0, 0, 0), rgb(255, 255, 255));&quot;&gt;Username Atau&lt;/span&gt;&lt;/div&gt;&lt;div&gt;&lt;span style=&quot;background-color: transparent; color: light-dark(rgb(0, 0, 0), rgb(255, 255, 255));&quot;&gt;Password salah&lt;/span&gt;&lt;/div&gt;" style="shape=parallelogram;perimeter=parallelogramPerimeter;whiteSpace=wrap;html=1;fixedSize=1;" parent="xoxCfO0x_ZQ4_q8p7-6C-1" vertex="1">
          <mxGeometry x="693.37" y="590" width="120" height="60" as="geometry" />
        </mxCell>
        <mxCell id="xoxCfO0x_ZQ4_q8p7-6C-62" style="edgeStyle=orthogonalEdgeStyle;rounded=0;orthogonalLoop=1;jettySize=auto;html=1;exitX=1;exitY=1;exitDx=0;exitDy=0;" parent="xoxCfO0x_ZQ4_q8p7-6C-1" source="xoxCfO0x_ZQ4_q8p7-6C-64" edge="1">
          <mxGeometry relative="1" as="geometry">
            <mxPoint x="653.37" y="761.7037037037037" as="targetPoint" />
          </mxGeometry>
        </mxCell>
        <mxCell id="xoxCfO0x_ZQ4_q8p7-6C-63" value="" style="edgeStyle=orthogonalEdgeStyle;rounded=0;orthogonalLoop=1;jettySize=auto;html=1;" parent="xoxCfO0x_ZQ4_q8p7-6C-1" source="xoxCfO0x_ZQ4_q8p7-6C-64" target="xoxCfO0x_ZQ4_q8p7-6C-69" edge="1">
          <mxGeometry relative="1" as="geometry" />
        </mxCell>
        <mxCell id="xoxCfO0x_ZQ4_q8p7-6C-64" value="Output Tampilan&lt;div&gt;Menu User Biasa&lt;/div&gt;" style="shape=parallelogram;perimeter=parallelogramPerimeter;whiteSpace=wrap;html=1;fixedSize=1;" parent="xoxCfO0x_ZQ4_q8p7-6C-1" vertex="1">
          <mxGeometry x="508.37000000000046" y="710" width="120" height="60" as="geometry" />
        </mxCell>
        <mxCell id="xoxCfO0x_ZQ4_q8p7-6C-65" value="" style="edgeStyle=orthogonalEdgeStyle;rounded=0;orthogonalLoop=1;jettySize=auto;html=1;" parent="xoxCfO0x_ZQ4_q8p7-6C-1" source="xoxCfO0x_ZQ4_q8p7-6C-69" target="xoxCfO0x_ZQ4_q8p7-6C-74" edge="1">
          <mxGeometry relative="1" as="geometry" />
        </mxCell>
        <mxCell id="xoxCfO0x_ZQ4_q8p7-6C-66" value="False" style="edgeLabel;html=1;align=center;verticalAlign=middle;resizable=0;points=[];" parent="xoxCfO0x_ZQ4_q8p7-6C-65" vertex="1" connectable="0">
          <mxGeometry x="-0.3706" y="2" relative="1" as="geometry">
            <mxPoint x="5" as="offset" />
          </mxGeometry>
        </mxCell>
        <mxCell id="xoxCfO0x_ZQ4_q8p7-6C-67" value="" style="edgeStyle=orthogonalEdgeStyle;rounded=0;orthogonalLoop=1;jettySize=auto;html=1;entryX=0.5;entryY=0;entryDx=0;entryDy=0;" parent="xoxCfO0x_ZQ4_q8p7-6C-1" source="xoxCfO0x_ZQ4_q8p7-6C-69" target="pFRPXXdesja61kGtYfZB-6" edge="1">
          <mxGeometry relative="1" as="geometry">
            <mxPoint x="568.3700000000003" y="964" as="targetPoint" />
          </mxGeometry>
        </mxCell>
        <mxCell id="xoxCfO0x_ZQ4_q8p7-6C-68" value="True" style="edgeLabel;html=1;align=center;verticalAlign=middle;resizable=0;points=[];" parent="xoxCfO0x_ZQ4_q8p7-6C-67" vertex="1" connectable="0">
          <mxGeometry x="-0.25" y="-1" relative="1" as="geometry">
            <mxPoint as="offset" />
          </mxGeometry>
        </mxCell>
        <mxCell id="xoxCfO0x_ZQ4_q8p7-6C-69" value="If Pilihan == 1&lt;div&gt;(Lihat Event)&lt;/div&gt;" style="rhombus;whiteSpace=wrap;html=1;" parent="xoxCfO0x_ZQ4_q8p7-6C-1" vertex="1">
          <mxGeometry x="518.3700000000005" y="800" width="100" height="100" as="geometry" />
        </mxCell>
        <mxCell id="xoxCfO0x_ZQ4_q8p7-6C-70" value="" style="edgeStyle=orthogonalEdgeStyle;rounded=0;orthogonalLoop=1;jettySize=auto;html=1;" parent="xoxCfO0x_ZQ4_q8p7-6C-1" source="xoxCfO0x_ZQ4_q8p7-6C-74" edge="1">
          <mxGeometry relative="1" as="geometry">
            <mxPoint x="820.3699999999999" y="850" as="targetPoint" />
          </mxGeometry>
        </mxCell>
        <mxCell id="xoxCfO0x_ZQ4_q8p7-6C-71" value="False" style="edgeLabel;html=1;align=center;verticalAlign=middle;resizable=0;points=[];" parent="xoxCfO0x_ZQ4_q8p7-6C-70" vertex="1" connectable="0">
          <mxGeometry x="0.1333" y="1" relative="1" as="geometry">
            <mxPoint x="-7" as="offset" />
          </mxGeometry>
        </mxCell>
        <mxCell id="xoxCfO0x_ZQ4_q8p7-6C-72" value="" style="edgeStyle=orthogonalEdgeStyle;rounded=0;orthogonalLoop=1;jettySize=auto;html=1;entryX=0.5;entryY=0;entryDx=0;entryDy=0;" parent="xoxCfO0x_ZQ4_q8p7-6C-1" source="xoxCfO0x_ZQ4_q8p7-6C-74" target="pFRPXXdesja61kGtYfZB-9" edge="1">
          <mxGeometry relative="1" as="geometry">
            <mxPoint x="720.3699999999999" y="940" as="targetPoint" />
          </mxGeometry>
        </mxCell>
        <mxCell id="xoxCfO0x_ZQ4_q8p7-6C-73" value="True" style="edgeLabel;html=1;align=center;verticalAlign=middle;resizable=0;points=[];" parent="xoxCfO0x_ZQ4_q8p7-6C-72" vertex="1" connectable="0">
          <mxGeometry x="-0.0703" y="-1" relative="1" as="geometry">
            <mxPoint as="offset" />
          </mxGeometry>
        </mxCell>
        <mxCell id="xoxCfO0x_ZQ4_q8p7-6C-74" value="If Pilihan == 2&lt;div&gt;(Daftar Event)&lt;/div&gt;" style="rhombus;whiteSpace=wrap;html=1;" parent="xoxCfO0x_ZQ4_q8p7-6C-1" vertex="1">
          <mxGeometry x="670.37" y="800" width="100" height="100" as="geometry" />
        </mxCell>
        <mxCell id="xoxCfO0x_ZQ4_q8p7-6C-78" value="" style="edgeStyle=orthogonalEdgeStyle;rounded=0;orthogonalLoop=1;jettySize=auto;html=1;" parent="xoxCfO0x_ZQ4_q8p7-6C-1" source="xoxCfO0x_ZQ4_q8p7-6C-82" edge="1">
          <mxGeometry relative="1" as="geometry">
            <mxPoint x="589.96" y="485" as="targetPoint" />
          </mxGeometry>
        </mxCell>
        <mxCell id="xoxCfO0x_ZQ4_q8p7-6C-79" value="True" style="edgeLabel;html=1;align=center;verticalAlign=middle;resizable=0;points=[];" parent="xoxCfO0x_ZQ4_q8p7-6C-78" vertex="1" connectable="0">
          <mxGeometry x="-0.3119" y="-2" relative="1" as="geometry">
            <mxPoint as="offset" />
          </mxGeometry>
        </mxCell>
        <mxCell id="xoxCfO0x_ZQ4_q8p7-6C-80" value="" style="edgeStyle=orthogonalEdgeStyle;rounded=0;orthogonalLoop=1;jettySize=auto;html=1;" parent="xoxCfO0x_ZQ4_q8p7-6C-1" source="xoxCfO0x_ZQ4_q8p7-6C-82" edge="1">
          <mxGeometry relative="1" as="geometry">
            <mxPoint x="699.96" y="385" as="targetPoint" />
          </mxGeometry>
        </mxCell>
        <mxCell id="xoxCfO0x_ZQ4_q8p7-6C-81" value="False" style="edgeLabel;html=1;align=center;verticalAlign=middle;resizable=0;points=[];" parent="xoxCfO0x_ZQ4_q8p7-6C-80" vertex="1" connectable="0">
          <mxGeometry x="0.1501" y="-1" relative="1" as="geometry">
            <mxPoint x="-7" as="offset" />
          </mxGeometry>
        </mxCell>
        <mxCell id="xoxCfO0x_ZQ4_q8p7-6C-82" value="If Username &amp;amp;&lt;div&gt;Password Kosong&lt;/div&gt;" style="rhombus;whiteSpace=wrap;html=1;" parent="xoxCfO0x_ZQ4_q8p7-6C-1" vertex="1">
          <mxGeometry x="529.96" y="325" width="120" height="120" as="geometry" />
        </mxCell>
        <mxCell id="xoxCfO0x_ZQ4_q8p7-6C-83" style="edgeStyle=orthogonalEdgeStyle;rounded=0;orthogonalLoop=1;jettySize=auto;html=1;exitX=1;exitY=1;exitDx=0;exitDy=0;" parent="xoxCfO0x_ZQ4_q8p7-6C-1" source="xoxCfO0x_ZQ4_q8p7-6C-85" edge="1">
          <mxGeometry relative="1" as="geometry">
            <mxPoint x="679.96" y="536.0011111111112" as="targetPoint" />
          </mxGeometry>
        </mxCell>
        <mxCell id="R06Up2OJ0IfYhRuj0nO9-0" style="edgeStyle=orthogonalEdgeStyle;rounded=0;orthogonalLoop=1;jettySize=auto;html=1;exitX=0.5;exitY=1;exitDx=0;exitDy=0;entryX=0;entryY=0.25;entryDx=0;entryDy=0;" edge="1" parent="xoxCfO0x_ZQ4_q8p7-6C-1" source="xoxCfO0x_ZQ4_q8p7-6C-85" target="xoxCfO0x_ZQ4_q8p7-6C-7">
          <mxGeometry relative="1" as="geometry">
            <mxPoint x="1100" y="390" as="targetPoint" />
            <Array as="points">
              <mxPoint x="590" y="570" />
              <mxPoint x="1450" y="570" />
              <mxPoint x="1450" y="1260" />
              <mxPoint x="220" y="1260" />
              <mxPoint x="220" y="64" />
            </Array>
          </mxGeometry>
        </mxCell>
        <mxCell id="xoxCfO0x_ZQ4_q8p7-6C-85" value="Output&amp;nbsp;&lt;div&gt;&lt;span style=&quot;background-color: transparent; color: light-dark(rgb(0, 0, 0), rgb(255, 255, 255));&quot;&gt;Username &amp;amp;&lt;/span&gt;&lt;/div&gt;&lt;div&gt;&lt;span style=&quot;background-color: transparent; color: light-dark(rgb(0, 0, 0), rgb(255, 255, 255));&quot;&gt;Password Wajib&lt;/span&gt;&lt;/div&gt;&lt;div&gt;&lt;span style=&quot;background-color: transparent; color: light-dark(rgb(0, 0, 0), rgb(255, 255, 255));&quot;&gt;Diisi&lt;/span&gt;&lt;/div&gt;" style="shape=parallelogram;perimeter=parallelogramPerimeter;whiteSpace=wrap;html=1;fixedSize=1;" parent="xoxCfO0x_ZQ4_q8p7-6C-1" vertex="1">
          <mxGeometry x="529.96" y="485" width="120" height="60" as="geometry" />
        </mxCell>
        <mxCell id="xoxCfO0x_ZQ4_q8p7-6C-96" style="edgeStyle=orthogonalEdgeStyle;rounded=0;orthogonalLoop=1;jettySize=auto;html=1;exitX=1;exitY=1;exitDx=0;exitDy=0;" parent="xoxCfO0x_ZQ4_q8p7-6C-1" edge="1">
          <mxGeometry relative="1" as="geometry">
            <mxPoint x="680.1" y="970.0013725490197" as="targetPoint" />
            <mxPoint x="639.9571428571428" y="969.9985714285714" as="sourcePoint" />
          </mxGeometry>
        </mxCell>
        <mxCell id="qxfv4womMg4prEkhpnnU-0" value="Menu Admin" style="shape=offPageConnector;whiteSpace=wrap;html=1;" parent="xoxCfO0x_ZQ4_q8p7-6C-1" vertex="1">
          <mxGeometry x="375" y="720" width="60" height="60" as="geometry" />
        </mxCell>
        <mxCell id="Xyyz1zmZMTcuCXvjhfWz-3" value="" style="edgeStyle=orthogonalEdgeStyle;rounded=0;orthogonalLoop=1;jettySize=auto;html=1;" edge="1" parent="xoxCfO0x_ZQ4_q8p7-6C-1" source="Xyyz1zmZMTcuCXvjhfWz-0" target="xoxCfO0x_ZQ4_q8p7-6C-28">
          <mxGeometry relative="1" as="geometry" />
        </mxCell>
        <mxCell id="Xyyz1zmZMTcuCXvjhfWz-4" value="False" style="edgeLabel;html=1;align=center;verticalAlign=middle;resizable=0;points=[];" vertex="1" connectable="0" parent="Xyyz1zmZMTcuCXvjhfWz-3">
          <mxGeometry x="0.2185" y="2" relative="1" as="geometry">
            <mxPoint as="offset" />
          </mxGeometry>
        </mxCell>
        <mxCell id="dJ-ju56JuRfTfduE2x7x-0" value="" style="edgeStyle=orthogonalEdgeStyle;rounded=0;orthogonalLoop=1;jettySize=auto;html=1;" edge="1" parent="xoxCfO0x_ZQ4_q8p7-6C-1" source="Xyyz1zmZMTcuCXvjhfWz-0" target="Xyyz1zmZMTcuCXvjhfWz-1">
          <mxGeometry relative="1" as="geometry" />
        </mxCell>
        <mxCell id="dJ-ju56JuRfTfduE2x7x-1" value="True" style="edgeLabel;html=1;align=center;verticalAlign=middle;resizable=0;points=[];" vertex="1" connectable="0" parent="dJ-ju56JuRfTfduE2x7x-0">
          <mxGeometry x="-0.2444" relative="1" as="geometry">
            <mxPoint as="offset" />
          </mxGeometry>
        </mxCell>
        <mxCell id="Xyyz1zmZMTcuCXvjhfWz-0" value="&lt;div&gt;&lt;span style=&quot;background-color: transparent; color: light-dark(rgb(0, 0, 0), rgb(255, 255, 255));&quot;&gt;If pilihan == 4&lt;/span&gt;&lt;/div&gt;&lt;div&gt;(Keluar)&lt;/div&gt;" style="rhombus;whiteSpace=wrap;html=1;" vertex="1" parent="xoxCfO0x_ZQ4_q8p7-6C-1">
          <mxGeometry x="1130" y="105" width="100" height="100" as="geometry" />
        </mxCell>
        <mxCell id="zzvHTyrO_NgbMyNt_N_X-4" style="edgeStyle=orthogonalEdgeStyle;rounded=0;orthogonalLoop=1;jettySize=auto;html=1;exitX=1;exitY=0.5;exitDx=0;exitDy=0;entryX=1;entryY=0.5;entryDx=0;entryDy=0;" edge="1" parent="xoxCfO0x_ZQ4_q8p7-6C-1" source="Xyyz1zmZMTcuCXvjhfWz-1" target="xoxCfO0x_ZQ4_q8p7-6C-4">
          <mxGeometry relative="1" as="geometry">
            <Array as="points">
              <mxPoint x="1480" y="275" />
              <mxPoint x="1480" y="1300" />
            </Array>
          </mxGeometry>
        </mxCell>
        <mxCell id="Xyyz1zmZMTcuCXvjhfWz-1" value="Output Pesan&lt;div&gt;&lt;span style=&quot;background-color: transparent; color: light-dark(rgb(0, 0, 0), rgb(255, 255, 255));&quot;&gt;Terima Kasih &amp;amp;&lt;/span&gt;&lt;div&gt;Keluar Program&lt;/div&gt;&lt;/div&gt;" style="shape=parallelogram;perimeter=parallelogramPerimeter;whiteSpace=wrap;html=1;fixedSize=1;" vertex="1" parent="xoxCfO0x_ZQ4_q8p7-6C-1">
          <mxGeometry x="1120" y="245" width="120" height="60" as="geometry" />
        </mxCell>
        <mxCell id="pFRPXXdesja61kGtYfZB-4" style="edgeStyle=orthogonalEdgeStyle;rounded=0;orthogonalLoop=1;jettySize=auto;html=1;exitX=1;exitY=1;exitDx=0;exitDy=0;" edge="1" parent="xoxCfO0x_ZQ4_q8p7-6C-1">
          <mxGeometry relative="1" as="geometry">
            <mxPoint x="1071.37" y="297.3650793650794" as="targetPoint" />
            <mxPoint x="1034" y="297" as="sourcePoint" />
          </mxGeometry>
        </mxCell>
        <mxCell id="pFRPXXdesja61kGtYfZB-5" style="edgeStyle=orthogonalEdgeStyle;rounded=0;orthogonalLoop=1;jettySize=auto;html=1;exitX=1;exitY=1;exitDx=0;exitDy=0;" edge="1" parent="xoxCfO0x_ZQ4_q8p7-6C-1">
          <mxGeometry relative="1" as="geometry">
            <mxPoint x="1261.37" y="296.3650793650794" as="targetPoint" />
            <mxPoint x="1224" y="296" as="sourcePoint" />
          </mxGeometry>
        </mxCell>
        <mxCell id="pFRPXXdesja61kGtYfZB-7" style="edgeStyle=orthogonalEdgeStyle;rounded=0;orthogonalLoop=1;jettySize=auto;html=1;exitX=0.5;exitY=1;exitDx=0;exitDy=0;entryX=0;entryY=0.25;entryDx=0;entryDy=0;" edge="1" parent="xoxCfO0x_ZQ4_q8p7-6C-1" source="pFRPXXdesja61kGtYfZB-6" target="xoxCfO0x_ZQ4_q8p7-6C-7">
          <mxGeometry relative="1" as="geometry">
            <mxPoint x="560.0000000000002" y="1260" as="targetPoint" />
            <Array as="points">
              <mxPoint x="568" y="1070" />
              <mxPoint x="220" y="1070" />
              <mxPoint x="220" y="64" />
            </Array>
          </mxGeometry>
        </mxCell>
        <mxCell id="pFRPXXdesja61kGtYfZB-6" value="&amp;nbsp; &amp;nbsp;Output Tampilan&amp;nbsp;&lt;div&gt;Daftar Event&lt;/div&gt;" style="shape=parallelogram;perimeter=parallelogramPerimeter;whiteSpace=wrap;html=1;fixedSize=1;" vertex="1" parent="xoxCfO0x_ZQ4_q8p7-6C-1">
          <mxGeometry x="508.37" y="960" width="120" height="60" as="geometry" />
        </mxCell>
        <mxCell id="eCgyWPvmdXhHtLelMhpz-1" value="" style="edgeStyle=orthogonalEdgeStyle;rounded=0;orthogonalLoop=1;jettySize=auto;html=1;entryX=0;entryY=0.25;entryDx=0;entryDy=0;" edge="1" parent="xoxCfO0x_ZQ4_q8p7-6C-1" source="pFRPXXdesja61kGtYfZB-8" target="xoxCfO0x_ZQ4_q8p7-6C-7">
          <mxGeometry relative="1" as="geometry">
            <mxPoint x="869.96" y="960" as="targetPoint" />
            <Array as="points">
              <mxPoint x="870" y="1070" />
              <mxPoint x="220" y="1070" />
              <mxPoint x="220" y="64" />
            </Array>
          </mxGeometry>
        </mxCell>
        <mxCell id="BgEgFB7JM1cvDMdshjkG-0" value="True" style="edgeLabel;html=1;align=center;verticalAlign=middle;resizable=0;points=[];" vertex="1" connectable="0" parent="eCgyWPvmdXhHtLelMhpz-1">
          <mxGeometry x="-0.9679" relative="1" as="geometry">
            <mxPoint as="offset" />
          </mxGeometry>
        </mxCell>
        <mxCell id="eCgyWPvmdXhHtLelMhpz-5" style="edgeStyle=orthogonalEdgeStyle;rounded=0;orthogonalLoop=1;jettySize=auto;html=1;entryX=1;entryY=0.5;entryDx=0;entryDy=0;" edge="1" parent="xoxCfO0x_ZQ4_q8p7-6C-1" source="pFRPXXdesja61kGtYfZB-8" target="xoxCfO0x_ZQ4_q8p7-6C-64">
          <mxGeometry relative="1" as="geometry">
            <Array as="points">
              <mxPoint x="960" y="850" />
              <mxPoint x="960" y="740" />
            </Array>
          </mxGeometry>
        </mxCell>
        <mxCell id="eCgyWPvmdXhHtLelMhpz-6" value="False" style="edgeLabel;html=1;align=center;verticalAlign=middle;resizable=0;points=[];" vertex="1" connectable="0" parent="eCgyWPvmdXhHtLelMhpz-5">
          <mxGeometry x="-0.8973" relative="1" as="geometry">
            <mxPoint as="offset" />
          </mxGeometry>
        </mxCell>
        <mxCell id="pFRPXXdesja61kGtYfZB-8" value="If Pilihan == 3&lt;div&gt;(Kembali &lt;span style=&quot;background-color: transparent; color: light-dark(rgb(0, 0, 0), rgb(255, 255, 255));&quot;&gt;Menu)&lt;/span&gt;&lt;/div&gt;" style="rhombus;whiteSpace=wrap;html=1;" vertex="1" parent="xoxCfO0x_ZQ4_q8p7-6C-1">
          <mxGeometry x="819.96" y="800" width="100" height="100" as="geometry" />
        </mxCell>
        <mxCell id="pFRPXXdesja61kGtYfZB-11" style="edgeStyle=orthogonalEdgeStyle;rounded=0;orthogonalLoop=1;jettySize=auto;html=1;entryX=0;entryY=0.25;entryDx=0;entryDy=0;" edge="1" parent="xoxCfO0x_ZQ4_q8p7-6C-1" source="pFRPXXdesja61kGtYfZB-9" target="xoxCfO0x_ZQ4_q8p7-6C-7">
          <mxGeometry relative="1" as="geometry">
            <Array as="points">
              <mxPoint x="720" y="1070" />
              <mxPoint x="220" y="1070" />
              <mxPoint x="220" y="64" />
            </Array>
          </mxGeometry>
        </mxCell>
        <mxCell id="pFRPXXdesja61kGtYfZB-9" value="&amp;nbsp; &amp;nbsp;Input Event&lt;div&gt;yang ingin diikuti&lt;/div&gt;" style="shape=parallelogram;perimeter=parallelogramPerimeter;whiteSpace=wrap;html=1;fixedSize=1;" vertex="1" parent="xoxCfO0x_ZQ4_q8p7-6C-1">
          <mxGeometry x="660.37" y="960" width="120" height="60" as="geometry" />
        </mxCell>
        <mxCell id="pFRPXXdesja61kGtYfZB-10" style="edgeStyle=orthogonalEdgeStyle;rounded=0;orthogonalLoop=1;jettySize=auto;html=1;exitX=1;exitY=1;exitDx=0;exitDy=0;" edge="1" parent="xoxCfO0x_ZQ4_q8p7-6C-1">
          <mxGeometry relative="1" as="geometry">
            <mxPoint x="649.9628571428573" y="1010.0028011204483" as="targetPoint" />
            <mxPoint x="609.82" y="1010" as="sourcePoint" />
          </mxGeometry>
        </mxCell>
      </root>
    </mxGraphModel>
  </diagram>
  <diagram name="Menu Admin" id="BR5xipPV8jVJKScLvxTG">
    <mxGraphModel dx="2180" dy="1443" grid="1" gridSize="10" guides="1" tooltips="1" connect="1" arrows="1" fold="1" page="1" pageScale="1" pageWidth="850" pageHeight="1100" background="none" math="0" shadow="0">
      <root>
        <mxCell id="io0IvnrYup7PizXmSNZj-0" />
        <mxCell id="io0IvnrYup7PizXmSNZj-1" parent="io0IvnrYup7PizXmSNZj-0" />
        <mxCell id="io0IvnrYup7PizXmSNZj-88" style="edgeStyle=orthogonalEdgeStyle;rounded=0;orthogonalLoop=1;jettySize=auto;html=1;exitX=1;exitY=1;exitDx=0;exitDy=0;" parent="io0IvnrYup7PizXmSNZj-1" source="io0IvnrYup7PizXmSNZj-90" edge="1">
          <mxGeometry relative="1" as="geometry">
            <mxPoint x="477.5" y="711.7037037037037" as="targetPoint" />
          </mxGeometry>
        </mxCell>
        <mxCell id="io0IvnrYup7PizXmSNZj-89" value="" style="edgeStyle=orthogonalEdgeStyle;rounded=0;orthogonalLoop=1;jettySize=auto;html=1;" parent="io0IvnrYup7PizXmSNZj-1" source="io0IvnrYup7PizXmSNZj-90" target="io0IvnrYup7PizXmSNZj-106" edge="1">
          <mxGeometry relative="1" as="geometry" />
        </mxCell>
        <mxCell id="io0IvnrYup7PizXmSNZj-90" value="Output Tampilan&lt;div&gt;Menu Admin&lt;/div&gt;" style="shape=parallelogram;perimeter=parallelogramPerimeter;whiteSpace=wrap;html=1;fixedSize=1;" parent="io0IvnrYup7PizXmSNZj-1" vertex="1">
          <mxGeometry x="344.5" y="660" width="120" height="60" as="geometry" />
        </mxCell>
        <mxCell id="io0IvnrYup7PizXmSNZj-102" value="" style="edgeStyle=orthogonalEdgeStyle;rounded=0;orthogonalLoop=1;jettySize=auto;html=1;" parent="io0IvnrYup7PizXmSNZj-1" source="io0IvnrYup7PizXmSNZj-106" target="io0IvnrYup7PizXmSNZj-111" edge="1">
          <mxGeometry relative="1" as="geometry" />
        </mxCell>
        <mxCell id="io0IvnrYup7PizXmSNZj-103" value="False" style="edgeLabel;html=1;align=center;verticalAlign=middle;resizable=0;points=[];" parent="io0IvnrYup7PizXmSNZj-102" vertex="1" connectable="0">
          <mxGeometry x="-0.4989" y="2" relative="1" as="geometry">
            <mxPoint x="7" as="offset" />
          </mxGeometry>
        </mxCell>
        <mxCell id="io0IvnrYup7PizXmSNZj-104" value="" style="edgeStyle=orthogonalEdgeStyle;rounded=0;orthogonalLoop=1;jettySize=auto;html=1;" parent="io0IvnrYup7PizXmSNZj-1" source="io0IvnrYup7PizXmSNZj-106" edge="1">
          <mxGeometry relative="1" as="geometry">
            <mxPoint x="404" y="920" as="targetPoint" />
          </mxGeometry>
        </mxCell>
        <mxCell id="io0IvnrYup7PizXmSNZj-105" value="True" style="edgeLabel;html=1;align=center;verticalAlign=middle;resizable=0;points=[];" parent="io0IvnrYup7PizXmSNZj-104" vertex="1" connectable="0">
          <mxGeometry x="-0.4591" y="-1" relative="1" as="geometry">
            <mxPoint as="offset" />
          </mxGeometry>
        </mxCell>
        <mxCell id="io0IvnrYup7PizXmSNZj-106" value="If Pilihan == 1&lt;div&gt;(Lihat Event)&lt;/div&gt;" style="rhombus;whiteSpace=wrap;html=1;" parent="io0IvnrYup7PizXmSNZj-1" vertex="1">
          <mxGeometry x="344" y="755" width="120" height="120" as="geometry" />
        </mxCell>
        <mxCell id="io0IvnrYup7PizXmSNZj-107" value="" style="edgeStyle=orthogonalEdgeStyle;rounded=0;orthogonalLoop=1;jettySize=auto;html=1;" parent="io0IvnrYup7PizXmSNZj-1" source="io0IvnrYup7PizXmSNZj-111" target="io0IvnrYup7PizXmSNZj-114" edge="1">
          <mxGeometry relative="1" as="geometry" />
        </mxCell>
        <mxCell id="io0IvnrYup7PizXmSNZj-108" value="False" style="edgeLabel;html=1;align=center;verticalAlign=middle;resizable=0;points=[];" parent="io0IvnrYup7PizXmSNZj-107" vertex="1" connectable="0">
          <mxGeometry x="-0.389" y="-1" relative="1" as="geometry">
            <mxPoint x="3" y="-2" as="offset" />
          </mxGeometry>
        </mxCell>
        <mxCell id="rSSt28zgrGAlVdXAVA-i-3" value="" style="edgeStyle=orthogonalEdgeStyle;rounded=0;orthogonalLoop=1;jettySize=auto;html=1;" edge="1" parent="io0IvnrYup7PizXmSNZj-1" source="io0IvnrYup7PizXmSNZj-111" target="rSSt28zgrGAlVdXAVA-i-2">
          <mxGeometry relative="1" as="geometry" />
        </mxCell>
        <mxCell id="rSSt28zgrGAlVdXAVA-i-17" value="True" style="edgeLabel;html=1;align=center;verticalAlign=middle;resizable=0;points=[];" vertex="1" connectable="0" parent="rSSt28zgrGAlVdXAVA-i-3">
          <mxGeometry x="-0.1556" y="4" relative="1" as="geometry">
            <mxPoint as="offset" />
          </mxGeometry>
        </mxCell>
        <mxCell id="io0IvnrYup7PizXmSNZj-111" value="If Pilihan == 2&amp;nbsp;&lt;div&gt;(Create Event)&lt;span style=&quot;color: rgba(0, 0, 0, 0); font-family: monospace; font-size: 0px; text-align: start; text-wrap-mode: nowrap;&quot;&gt;%3CmxGraphModel%3E%3Croot%3E%3CmxCell%20id%3D%220%22%2F%3E%3CmxCell%20id%3D%221%22%20parent%3D%220%22%2F%3E%3CmxCell%20id%3D%222%22%20value%3D%22If%20Pilihan%20%3D%3D%201%22%20style%3D%22rhombus%3BwhiteSpace%3Dwrap%3Bhtml%3D1%3B%22%20vertex%3D%221%22%20parent%3D%221%22%3E%3CmxGeometry%20x%3D%22354.5%22%20y%3D%22780%22%20width%3D%22100%22%20height%3D%22100%22%20as%3D%22geometry%22%2F%3E%3C%2FmxCell%3E%3C%2Froot%3E%3C%2FmxGraphModel%3E&lt;/span&gt;&lt;span style=&quot;color: rgba(0, 0, 0, 0); font-family: monospace; font-size: 0px; text-align: start; text-wrap-mode: nowrap;&quot;&gt;%3CmxGraphModel%3E%3Croot%3E%3CmxCell%20id%3D%220%22%2F%3E%3CmxCell%20id%3D%221%22%20parent%3D%220%22%2F%3E%3CmxCell%20id%3D%222%22%20value%3D%22If%20Pilihan%20%3D%3D%201%22%20style%3D%22rhombus%3BwhiteSpace%3Dwrap%3Bhtml%3D1%3B%22%20vertex%3D%221%22%20parent%3D%221%22%3E%3CmxGeometry%20x%3D%22354.5%22%20y%3D%22780%22%20width%3D%22100%22%20height%3D%22100%22%20as%3D%22geometry%22%2F%3E%3C%2FmxCell%3E%3C%2Froot%3E%3C%2FmxGraphModel%3E&lt;/span&gt;&lt;/div&gt;" style="rhombus;whiteSpace=wrap;html=1;" parent="io0IvnrYup7PizXmSNZj-1" vertex="1">
          <mxGeometry x="562" y="755" width="120" height="120" as="geometry" />
        </mxCell>
        <mxCell id="rSSt28zgrGAlVdXAVA-i-14" value="" style="edgeStyle=orthogonalEdgeStyle;rounded=0;orthogonalLoop=1;jettySize=auto;html=1;" edge="1" parent="io0IvnrYup7PizXmSNZj-1" source="io0IvnrYup7PizXmSNZj-114" target="rSSt28zgrGAlVdXAVA-i-13">
          <mxGeometry relative="1" as="geometry" />
        </mxCell>
        <mxCell id="rSSt28zgrGAlVdXAVA-i-16" value="True" style="edgeLabel;html=1;align=center;verticalAlign=middle;resizable=0;points=[];" vertex="1" connectable="0" parent="rSSt28zgrGAlVdXAVA-i-14">
          <mxGeometry x="-0.2" y="1" relative="1" as="geometry">
            <mxPoint as="offset" />
          </mxGeometry>
        </mxCell>
        <mxCell id="rSSt28zgrGAlVdXAVA-i-24" value="" style="edgeStyle=orthogonalEdgeStyle;rounded=0;orthogonalLoop=1;jettySize=auto;html=1;" edge="1" parent="io0IvnrYup7PizXmSNZj-1" source="io0IvnrYup7PizXmSNZj-114" target="rSSt28zgrGAlVdXAVA-i-23">
          <mxGeometry relative="1" as="geometry" />
        </mxCell>
        <mxCell id="rSSt28zgrGAlVdXAVA-i-25" value="False" style="edgeLabel;html=1;align=center;verticalAlign=middle;resizable=0;points=[];" vertex="1" connectable="0" parent="rSSt28zgrGAlVdXAVA-i-24">
          <mxGeometry x="0.0196" y="-1" relative="1" as="geometry">
            <mxPoint as="offset" />
          </mxGeometry>
        </mxCell>
        <mxCell id="io0IvnrYup7PizXmSNZj-114" value="If Pilihan == 3&lt;div&gt;&amp;nbsp;(Update Event)&lt;span style=&quot;background-color: transparent; text-wrap-mode: nowrap; color: rgba(0, 0, 0, 0); font-family: monospace; font-size: 0px; text-align: start;&quot;&gt;%3CmxGraphModel%3E%3Croot%3E%3CmxCell%20id%3D%220%22%2F%3E%3CmxCell%20id%3D%221%22%20parent%3D%220%22%2F%3E%3CmxCell%20id%3D%222%22%20value%3D%22If%20Pilihan%20%3D%3D%202%26lt%3Bspan%20style%3D%26quot%3Bcolor%3A%20rgba(0%2C%200%2C%200%2C%200)%3B%20font-family%3A%20monospace%3B%20font-size%3A%200px%3B%20text-align%3A%20start%3B%20text-wrap-mode%3A%20nowrap%3B%26quot%3B%26gt%3B%253CmxGraphModel%253E%253Croot%253E%253CmxCell%2520id%253D%25220%2522%252F%253E%253CmxCell%2520id%253D%25221%2522%2520parent%253D%25220%2522%252F%253E%253CmxCell%2520id%253D%25222%2522%2520value%253D%2522If%2520Pilihan%2520%253D%253D%25201%2522%2520style%253D%2522rhombus%253BwhiteSpace%253Dwrap%253Bhtml%253D1%253B%2522%2520vertex%253D%25221%2522%2520parent%253D%25221%2522%253E%253CmxGeometry%2520x%253D%2522354.5%2522%2520y%253D%2522780%2522%2520width%253D%2522100%2522%2520height%253D%2522100%2522%2520as%253D%2522geometry%2522%252F%253E%253C%252FmxCell%253E%253C%252Froot%253E%253C%252FmxGraphModel%253E%26lt%3B%2Fspan%26gt%3B%26lt%3Bspan%20style%3D%26quot%3Bcolor%3A%20rgba(0%2C%200%2C%200%2C%200)%3B%20font-family%3A%20monospace%3B%20font-size%3A%200px%3B%20text-align%3A%20start%3B%20text-wrap-mode%3A%20nowrap%3B%26quot%3B%26gt%3B%253CmxGraphModel%253E%253Croot%253E%253CmxCell%2520id%253D%25220%2522%252F%253E%253CmxCell%2520id%253D%25221%2522%2520parent%253D%25220%2522%252F%253E%253CmxCell%2520id%253D%25222%2522%2520value%253D%2522If%2520Pilihan%2520%253D%253D%25201%2522%2520style%253D%2522rhombus%253BwhiteSpace%253Dwrap%253Bhtml%253D1%253B%2522%2520vertex%253D%25221%2522%2520parent%253D%25221%2522%253E%253CmxGeometry%2520x%253D%2522354.5%2522%2520y%253D%2522780%2522%2520width%253D%2522100%2522%2520height%253D%2522100%2522%2520as%253D%2522geometry%2522%252F%253E%253C%252FmxCell%253E%253C%252Froot%253E%253C%252FmxGraphModel%253E%26lt%3B%2Fspan%26gt%3B%22%20style%3D%22rhombus%3BwhiteSpace%3Dwrap%3Bhtml%3D1%3B%22%20vertex%3D%221%22%20parent%3D%221%22%3E%3CmxGeometry%20x%3D%22480%22%20y%3D%22780%22%20width%3D%22100%22%20height%3D%22100%22%20as%3D%22geometry%22%2F%3E%3C%2FmxCell%3E%3C%2Froot%3E%3C%2FmxGraphModel%3E%3CmxGraphModel%3E%3Croot%3E%3CmxCell%20id%3D%220%22%2F%3E%3CmxCell%20id%3D%221%22%20parent%3D%220%22%2F%3E%3CmxCell%20id%3D%222%22%20value%3D%22If%20Pilihan%20%3D%3D%201%22%20style%3D%22rhombus%3BwhiteSpace%3Dwrap%3Bhtml%3D1%3B%22%20vertex%3D%221%22%20parent%3D%221%22%3E%3CmxGeometry%20x%3D%22354.5%22%20y%3D%22780%22%20width%3D%22100%22%20height%3D%22100%22%20as%3D%22geometry%22%2F%3E%3C%2FmxCell%3E%3C%2Froot%3E%3C%2FmxGraphModel%3E&lt;/span&gt;&lt;span style=&quot;background-color: transparent; text-wrap-mode: nowrap; color: rgba(0, 0, 0, 0); font-family: monospace; font-size: 0px; text-align: start;&quot;&gt;%3CmxGraphModel%3E%3Croot%3E%3CmxCell%20id%3D%220%22%2F%3E%3CmxCell%20id%3D%221%22%20parent%3D%220%22%2F%3E%3CmxCell%20id%3D%222%22%20value%3D%22If%20Pilihan%20%3D%3D%201%22%20style%3D%22rhombus%3BwhiteSpace%3Dwrap%3Bhtml%3D1%3B%22%20vertex%3D%221%22%20parent%3D%221%22%3E%3CmxGeometry%20x%3D%22354.5%22%20y%3D%22780%22%20width%3D%22100%22%20height%3D%22100%22%20as%3D%22geometry%22%2F%3E%3C%2FmxCell%3E%3C%2Froot%3E%3C%2FmxGraphModel%33&lt;/span&gt;&lt;/div&gt;" style="rhombus;whiteSpace=wrap;html=1;" parent="io0IvnrYup7PizXmSNZj-1" vertex="1">
          <mxGeometry x="759" y="755" width="120" height="120" as="geometry" />
        </mxCell>
        <mxCell id="io0IvnrYup7PizXmSNZj-115" value="" style="edgeStyle=orthogonalEdgeStyle;rounded=0;orthogonalLoop=1;jettySize=auto;html=1;" parent="io0IvnrYup7PizXmSNZj-1" source="io0IvnrYup7PizXmSNZj-117" target="io0IvnrYup7PizXmSNZj-122" edge="1">
          <mxGeometry relative="1" as="geometry" />
        </mxCell>
        <mxCell id="io0IvnrYup7PizXmSNZj-116" value="False" style="edgeLabel;html=1;align=center;verticalAlign=middle;resizable=0;points=[];" parent="io0IvnrYup7PizXmSNZj-115" vertex="1" connectable="0">
          <mxGeometry x="-0.304" y="-1" relative="1" as="geometry">
            <mxPoint x="2" y="-1" as="offset" />
          </mxGeometry>
        </mxCell>
        <mxCell id="rSSt28zgrGAlVdXAVA-i-50" value="" style="edgeStyle=orthogonalEdgeStyle;rounded=0;orthogonalLoop=1;jettySize=auto;html=1;" edge="1" parent="io0IvnrYup7PizXmSNZj-1" source="io0IvnrYup7PizXmSNZj-117" target="rSSt28zgrGAlVdXAVA-i-49">
          <mxGeometry relative="1" as="geometry" />
        </mxCell>
        <mxCell id="rSSt28zgrGAlVdXAVA-i-84" value="True" style="edgeLabel;html=1;align=center;verticalAlign=middle;resizable=0;points=[];" vertex="1" connectable="0" parent="rSSt28zgrGAlVdXAVA-i-50">
          <mxGeometry x="-0.0182" y="4" relative="1" as="geometry">
            <mxPoint as="offset" />
          </mxGeometry>
        </mxCell>
        <mxCell id="io0IvnrYup7PizXmSNZj-117" value="If Pilihan == 5&lt;div&gt;&amp;nbsp;(Kelola Pesrta)&lt;span style=&quot;color: rgba(0, 0, 0, 0); font-family: monospace; font-size: 0px; text-align: start; text-wrap-mode: nowrap;&quot;&gt;%3CmxGraphModel%3E%3Croot%3E%3CmxCell%20id%3D%220%22%2F%3E%3CmxCell%20id%3D%221%22%20parent%3D%220%22%2F%3E%3CmxCell%20id%3D%222%22%20value%3D%22If%20Pilihan%20%3D%3D%202%26lt%3Bspan%20style%3D%26quot%3Bcolor%3A%20rgba(0%2C%200%2C%200%2C%200)%3B%20font-family%3A%20monospace%3B%20font-size%3A%200px%3B%20text-align%3A%20start%3B%20text-wrap-mode%3A%20nowrap%3B%26quot%3B%26gt%3B%253CmxGraphModel%253E%253Croot%253E%253CmxCell%2520id%253D%25220%2522%252F%253E%253CmxCell%2520id%253D%25221%2522%2520parent%253D%25220%2522%252F%253E%253CmxCell%2520id%253D%25222%2522%2520value%253D%2522If%2520Pilihan%2520%253D%253D%25201%2522%2520style%253D%2522rhombus%253BwhiteSpace%253Dwrap%253Bhtml%253D1%253B%2522%2520vertex%253D%25221%2522%2520parent%253D%25221%2522%253E%253CmxGeometry%2520x%253D%2522354.5%2522%2520y%253D%2522780%2522%2520width%253D%2522100%2522%2520height%253D%2522100%2522%2520as%253D%2522geometry%2522%252F%253E%253C%252FmxCell%253E%253C%252Froot%253E%253C%252FmxGraphModel%253E%26lt%3B%2Fspan%26gt%3B%26lt%3Bspan%20style%3D%26quot%3Bcolor%3A%20rgba(0%2C%200%2C%200%2C%200)%3B%20font-family%3A%20monospace%3B%20font-size%3A%200px%3B%20text-align%3A%20start%3B%20text-wrap-mode%3A%20nowrap%3B%26quot%3B%26gt%3B%253CmxGraphModel%253E%253Croot%253E%253CmxCell%2520id%253D%25220%2522%252F%253E%253CmxCell%2520id%253D%25221%2522%2520parent%253D%25220%2522%252F%253E%253CmxCell%2520id%253D%25222%2522%2520value%253D%2522If%2520Pilihan%2520%253D%253D%25201%2522%2520style%253D%2522rhombus%253BwhiteSpace%253Dwrap%253Bhtml%253D1%253B%2522%2520vertex%253D%25221%2522%2520parent%253D%25221%2522%253E%253CmxGeometry%2520x%253D%2522354.5%2522%2520y%253D%2522780%2522%2520width%253D%2522100%2522%2520height%253D%2522100%2522%2520as%253D%2522geometry%2522%252F%253E%253C%252FmxCell%253E%253C%252Froot%253E%253C%252FmxGraphModel%253E%26lt%3B%2Fspan%26gt%3B%22%20style%3D%22rhombus%3BwhiteSpace%3Dwrap%3Bhtml%3D1%3B%22%20vertex%3D%221%22%20parent%3D%221%22%3E%3CmxGeometry%20x%3D%22480%22%20y%3D%22780%22%20width%3D%22100%22%20height%3D%22100%22%20as%3D%22geometry%22%2F%3E%3C%2FmxCell%3E%3C%2Froot%3E%3C%2FmxGraphModel%3E%3CmxGraphModel%3E%3Croot%3E%3CmxCell%20id%3D%220%22%2F%3E%3CmxCell%20id%3D%221%22%20parent%3D%220%22%2F%3E%3CmxCell%20id%3D%222%22%20value%3D%22If%20Pilihan%20%3D%3D%201%22%20style%3D%22rhombus%3BwhiteSpace%3Dwrap%3Bhtml%3D1%3B%22%20vertex%3D%221%22%20parent%3D%221%22%3E%3CmxGeometry%20x%3D%22354.5%22%20y%3D%22780%22%20width%3D%22100%22%20height%3D%22100%22%20as%3D%22geometry%22%2F%3E%3C%2FmxCell%3E%3C%2Froot%3E%3C%2FmxGraphModel%3E&lt;/span&gt;&lt;span style=&quot;color: rgba(0, 0, 0, 0); font-family: monospace; font-size: 0px; text-align: start; text-wrap-mode: nowrap;&quot;&gt;%3CmxGraphModel%3E%3Croot%3E%3CmxCell%20id%3D%220%22%2F%3E%3CmxCell%20id%3D%221%22%20parent%3D%220%22%2F%3E%3CmxCell%20id%3D%222%22%20value%3D%22If%20Pilihan%20%3D%3D%201%22%20style%3D%22rhombus%3BwhiteSpace%3Dwrap%3Bhtml%3D1%3B%22%20vertex%3D%221%22%20parent%3D%221%22%3E%3CmxGeometry%20x%3D%22354.5%22%20y%3D%22780%22%20width%3D%22100%22%20height%3D%22100%22%20as%3D%22geometry%22%2F%3E%3C%2FmxCell%3E%3C%2Froot%3E%3C%2FmxGraphModel%3&lt;/span&gt;&lt;/div&gt;" style="rhombus;whiteSpace=wrap;html=1;" parent="io0IvnrYup7PizXmSNZj-1" vertex="1">
          <mxGeometry x="292" y="1398" width="120" height="120" as="geometry" />
        </mxCell>
        <mxCell id="io0IvnrYup7PizXmSNZj-118" value="" style="edgeStyle=orthogonalEdgeStyle;rounded=0;orthogonalLoop=1;jettySize=auto;html=1;" parent="io0IvnrYup7PizXmSNZj-1" source="io0IvnrYup7PizXmSNZj-122" target="io0IvnrYup7PizXmSNZj-124" edge="1">
          <mxGeometry relative="1" as="geometry" />
        </mxCell>
        <mxCell id="io0IvnrYup7PizXmSNZj-119" value="True" style="edgeLabel;html=1;align=center;verticalAlign=middle;resizable=0;points=[];" parent="io0IvnrYup7PizXmSNZj-118" vertex="1" connectable="0">
          <mxGeometry x="-0.665" y="3" relative="1" as="geometry">
            <mxPoint x="-4" as="offset" />
          </mxGeometry>
        </mxCell>
        <mxCell id="io0IvnrYup7PizXmSNZj-120" value="" style="edgeStyle=orthogonalEdgeStyle;rounded=0;orthogonalLoop=1;jettySize=auto;html=1;" parent="io0IvnrYup7PizXmSNZj-1" source="io0IvnrYup7PizXmSNZj-122" target="io0IvnrYup7PizXmSNZj-127" edge="1">
          <mxGeometry relative="1" as="geometry" />
        </mxCell>
        <mxCell id="io0IvnrYup7PizXmSNZj-121" value="False" style="edgeLabel;html=1;align=center;verticalAlign=middle;resizable=0;points=[];" parent="io0IvnrYup7PizXmSNZj-120" vertex="1" connectable="0">
          <mxGeometry x="0.1741" y="1" relative="1" as="geometry">
            <mxPoint x="-6" as="offset" />
          </mxGeometry>
        </mxCell>
        <mxCell id="io0IvnrYup7PizXmSNZj-122" value="If Pilihan == 6&amp;nbsp;&lt;div&gt;(Logout)&lt;span style=&quot;color: rgba(0, 0, 0, 0); font-family: monospace; font-size: 0px; text-align: start; text-wrap-mode: nowrap;&quot;&gt;%3CmxGraphModel%3E%3Croot%3E%3CmxCell%20id%3D%220%22%2F%3E%3CmxCell%20id%3D%221%22%20parent%3D%220%22%2F%3E%3CmxCell%20id%3D%222%22%20value%3D%22If%20Pilihan%20%3D%3D%202%26lt%3Bspan%20style%3D%26quot%3Bcolor%3A%20rgba(0%2C%200%2C%200%2C%200)%3B%20font-family%3A%20monospace%3B%20font-size%3A%200px%3B%20text-align%3A%20start%3B%20text-wrap-mode%3A%20nowrap%3B%26quot%3B%26gt%3B%253CmxGraphModel%253E%253Croot%253E%253CmxCell%2520id%253D%25220%2522%252F%253E%253CmxCell%2520id%253D%25221%2522%2520parent%253D%25220%2522%252F%253E%253CmxCell%2520id%253D%25222%2522%2520value%253D%2522If%2520Pilihan%2520%253D%253D%25201%2522%2520style%253D%2522rhombus%253BwhiteSpace%253Dwrap%253Bhtml%253D1%253B%2522%2520vertex%253D%25221%2522%2520parent%253D%25221%2522%253E%253CmxGeometry%2520x%253D%2522354.5%2522%2520y%253D%2522780%2522%2520width%253D%2522100%2522%2520height%253D%2522100%2522%2520as%253D%2522geometry%2522%252F%253E%253C%252FmxCell%253E%253C%252Froot%253E%253C%252FmxGraphModel%253E%26lt%3B%2Fspan%26gt%3B%26lt%3Bspan%20style%3D%26quot%3Bcolor%3A%20rgba(0%2C%200%2C%200%2C%200)%3B%20font-family%3A%20monospace%3B%20font-size%3A%200px%3B%20text-align%3A%20start%3B%20text-wrap-mode%3A%20nowrap%3B%26quot%3B%26gt%3B%253CmxGraphModel%253E%253Croot%253E%253CmxCell%2520id%253D%25220%2522%252F%253E%253CmxCell%2520id%253D%25221%2522%2520parent%253D%25220%2522%252F%253E%253CmxCell%2520id%253D%25222%2522%2520value%253D%2522If%2520Pilihan%2520%253D%253D%25201%2522%2520style%253D%2522rhombus%253BwhiteSpace%253Dwrap%253Bhtml%253D1%253B%2522%2520vertex%253D%25221%2522%2520parent%253D%25221%2522%253E%253CmxGeometry%2520x%253D%2522354.5%2522%2520y%253D%2522780%2522%2520width%253D%2522100%2522%2520height%253D%2522100%2522%2520as%253D%2522geometry%2522%252F%253E%253C%252FmxCell%253E%253C%252Froot%253E%253C%252FmxGraphModel%253E%26lt%3B%2Fspan%26gt%3B%22%20style%3D%22rhombus%3BwhiteSpace%3Dwrap%3Bhtml%3D1%3B%22%20vertex%3D%221%22%20parent%3D%221%22%3E%3CmxGeometry%20x%3D%22480%22%20y%3D%22780%22%20width%3D%22100%22%20height%3D%22100%22%20as%3D%22geometry%22%2F%3E%3C%2FmxCell%3E%3C%2Froot%3E%3C%2FmxGraphModel%3E%3CmxGraphModel%3E%3Croot%3E%3CmxCell%20id%3D%220%22%2F%3E%3CmxCell%20id%3D%221%22%20parent%3D%220%22%2F%3E%3CmxCell%20id%3D%222%22%20value%3D%22If%20Pilihan%20%3D%3D%201%22%20style%3D%22rhombus%3BwhiteSpace%3Dwrap%3Bhtml%3D1%3B%22%20vertex%3D%221%22%20parent%3D%221%22%3E%3CmxGeometry%20x%3D%22354.5%22%20y%3D%22780%22%20width%3D%22100%22%20height%3D%22100%22%20as%3D%22geometry%22%2F%3E%3C%2FmxCell%3E%3C%2Froot%3E%3C%2FmxGraphModel%3E&lt;/span&gt;&lt;span style=&quot;color: rgba(0, 0, 0, 0); font-family: monospace; font-size: 0px; text-align: start; text-wrap-mode: nowrap;&quot;&gt;%3CmxGraphModel%3E%3Croot%3E%3CmxCell%20id%3D%220%22%2F%3E%3CmxCell%20id%3D%221%22%20parent%3D%220%22%2F%3E%3CmxCell%20id%3D%222%22%20value%3D%22If%20Pilihan%20%3D%3D%201%22%20style%3D%22rhombus%3BwhiteSpace%3Dwrap%3Bhtml%3D1%3B%22%20vertex%3D%221%22%20parent%3D%221%22%3E%3CmxGeometry%20x%3D%22354.5%22%20y%3D%22780%22%20width%3D%22100%22%20height%3D%22100%22%20as%3D%22geometry%22%2F%3E%3C%2FmxCell%3E%3C%2Froot%3E%3C%2FmxGraphModel%33&lt;/span&gt;&lt;/div&gt;" style="rhombus;whiteSpace=wrap;html=1;" parent="io0IvnrYup7PizXmSNZj-1" vertex="1">
          <mxGeometry x="518" y="1398" width="120" height="120" as="geometry" />
        </mxCell>
        <mxCell id="0NnclfzAlgQ6PulSzdmn-5" value="" style="edgeStyle=orthogonalEdgeStyle;rounded=0;orthogonalLoop=1;jettySize=auto;html=1;" parent="io0IvnrYup7PizXmSNZj-1" source="io0IvnrYup7PizXmSNZj-124" target="0NnclfzAlgQ6PulSzdmn-4" edge="1">
          <mxGeometry relative="1" as="geometry" />
        </mxCell>
        <mxCell id="io0IvnrYup7PizXmSNZj-124" value="Logout" style="whiteSpace=wrap;html=1;" parent="io0IvnrYup7PizXmSNZj-1" vertex="1">
          <mxGeometry x="538" y="1548" width="80" height="40" as="geometry" />
        </mxCell>
        <mxCell id="rSSt28zgrGAlVdXAVA-i-73" style="edgeStyle=orthogonalEdgeStyle;rounded=0;orthogonalLoop=1;jettySize=auto;html=1;entryX=0.079;entryY=0.549;entryDx=0;entryDy=0;entryPerimeter=0;" edge="1" parent="io0IvnrYup7PizXmSNZj-1">
          <mxGeometry relative="1" as="geometry">
            <mxPoint x="353.9800000000001" y="689.94" as="targetPoint" />
            <mxPoint x="890.0000000000005" y="1454.9999999999998" as="sourcePoint" />
            <Array as="points">
              <mxPoint x="1010" y="1455" />
              <mxPoint x="1010" y="2167" />
              <mxPoint x="250" y="2167" />
              <mxPoint x="250" y="690" />
            </Array>
          </mxGeometry>
        </mxCell>
        <mxCell id="io0IvnrYup7PizXmSNZj-127" value="Output Pilihan&lt;div&gt;Tidak Valid&lt;/div&gt;" style="shape=parallelogram;perimeter=parallelogramPerimeter;whiteSpace=wrap;html=1;fixedSize=1;" parent="io0IvnrYup7PizXmSNZj-1" vertex="1">
          <mxGeometry x="780.0000000000005" y="1428" width="120" height="60" as="geometry" />
        </mxCell>
        <mxCell id="io0IvnrYup7PizXmSNZj-130" value="" style="edgeStyle=orthogonalEdgeStyle;rounded=0;orthogonalLoop=1;jettySize=auto;html=1;" parent="io0IvnrYup7PizXmSNZj-1" source="io0IvnrYup7PizXmSNZj-132" target="io0IvnrYup7PizXmSNZj-135" edge="1">
          <mxGeometry relative="1" as="geometry" />
        </mxCell>
        <mxCell id="io0IvnrYup7PizXmSNZj-131" value="True" style="edgeLabel;html=1;align=center;verticalAlign=middle;resizable=0;points=[];" parent="io0IvnrYup7PizXmSNZj-130" vertex="1" connectable="0">
          <mxGeometry x="-0.4171" y="-1" relative="1" as="geometry">
            <mxPoint as="offset" />
          </mxGeometry>
        </mxCell>
        <mxCell id="io0IvnrYup7PizXmSNZj-132" value="If input ID Peserta&amp;nbsp;&lt;span style=&quot;background-color: transparent; color: light-dark(rgb(0, 0, 0), rgb(255, 255, 255));&quot;&gt;ada&lt;/span&gt;" style="rhombus;whiteSpace=wrap;html=1;" parent="io0IvnrYup7PizXmSNZj-1" vertex="1">
          <mxGeometry x="302" y="1670" width="100" height="100" as="geometry" />
        </mxCell>
        <mxCell id="rSSt28zgrGAlVdXAVA-i-54" value="" style="edgeStyle=orthogonalEdgeStyle;rounded=0;orthogonalLoop=1;jettySize=auto;html=1;" edge="1" parent="io0IvnrYup7PizXmSNZj-1" source="io0IvnrYup7PizXmSNZj-135" target="rSSt28zgrGAlVdXAVA-i-53">
          <mxGeometry relative="1" as="geometry" />
        </mxCell>
        <mxCell id="io0IvnrYup7PizXmSNZj-135" value="Input Tambah &amp;amp; Hapus Peserta" style="shape=parallelogram;perimeter=parallelogramPerimeter;whiteSpace=wrap;html=1;fixedSize=1;" parent="io0IvnrYup7PizXmSNZj-1" vertex="1">
          <mxGeometry x="292" y="1820" width="120" height="60" as="geometry" />
        </mxCell>
        <mxCell id="io0IvnrYup7PizXmSNZj-138" style="edgeStyle=orthogonalEdgeStyle;rounded=0;orthogonalLoop=1;jettySize=auto;html=1;entryX=0.104;entryY=0.417;entryDx=0;entryDy=0;entryPerimeter=0;" parent="io0IvnrYup7PizXmSNZj-1" source="io0IvnrYup7PizXmSNZj-132" target="rSSt28zgrGAlVdXAVA-i-48" edge="1">
          <mxGeometry relative="1" as="geometry">
            <mxPoint x="453.3599999999999" y="1632.7199999999998" as="targetPoint" />
          </mxGeometry>
        </mxCell>
        <mxCell id="io0IvnrYup7PizXmSNZj-139" value="False" style="edgeLabel;html=1;align=center;verticalAlign=middle;resizable=0;points=[];" parent="io0IvnrYup7PizXmSNZj-138" vertex="1" connectable="0">
          <mxGeometry x="-0.1568" relative="1" as="geometry">
            <mxPoint as="offset" />
          </mxGeometry>
        </mxCell>
        <mxCell id="rSSt28zgrGAlVdXAVA-i-29" value="" style="edgeStyle=orthogonalEdgeStyle;rounded=0;orthogonalLoop=1;jettySize=auto;html=1;" edge="1" parent="io0IvnrYup7PizXmSNZj-1" source="io0IvnrYup7PizXmSNZj-176" target="io0IvnrYup7PizXmSNZj-178">
          <mxGeometry relative="1" as="geometry" />
        </mxCell>
        <mxCell id="rSSt28zgrGAlVdXAVA-i-85" value="False" style="edgeLabel;html=1;align=center;verticalAlign=middle;resizable=0;points=[];" vertex="1" connectable="0" parent="rSSt28zgrGAlVdXAVA-i-29">
          <mxGeometry x="-0.1608" y="2" relative="1" as="geometry">
            <mxPoint as="offset" />
          </mxGeometry>
        </mxCell>
        <mxCell id="rSSt28zgrGAlVdXAVA-i-30" value="" style="edgeStyle=orthogonalEdgeStyle;rounded=0;orthogonalLoop=1;jettySize=auto;html=1;" edge="1" parent="io0IvnrYup7PizXmSNZj-1" source="io0IvnrYup7PizXmSNZj-176" target="rSSt28zgrGAlVdXAVA-i-28">
          <mxGeometry relative="1" as="geometry" />
        </mxCell>
        <mxCell id="rSSt28zgrGAlVdXAVA-i-86" value="True" style="edgeLabel;html=1;align=center;verticalAlign=middle;resizable=0;points=[];" vertex="1" connectable="0" parent="rSSt28zgrGAlVdXAVA-i-30">
          <mxGeometry x="0.3845" y="-1" relative="1" as="geometry">
            <mxPoint as="offset" />
          </mxGeometry>
        </mxCell>
        <mxCell id="io0IvnrYup7PizXmSNZj-176" value="If Input&amp;nbsp;&lt;div&gt;&lt;span style=&quot;background-color: transparent; color: light-dark(rgb(0, 0, 0), rgb(255, 255, 255));&quot;&gt;Pilihan&amp;nbsp;&lt;/span&gt;&lt;span style=&quot;background-color: transparent; color: light-dark(rgb(0, 0, 0), rgb(255, 255, 255));&quot;&gt;Ada&lt;/span&gt;&lt;/div&gt;" style="rhombus;whiteSpace=wrap;html=1;" parent="io0IvnrYup7PizXmSNZj-1" vertex="1">
          <mxGeometry x="1064.5" y="1020" width="97" height="97" as="geometry" />
        </mxCell>
        <mxCell id="rSSt28zgrGAlVdXAVA-i-34" style="edgeStyle=orthogonalEdgeStyle;rounded=0;orthogonalLoop=1;jettySize=auto;html=1;exitX=0.5;exitY=1;exitDx=0;exitDy=0;entryX=0;entryY=0.5;entryDx=0;entryDy=0;" edge="1" parent="io0IvnrYup7PizXmSNZj-1" source="io0IvnrYup7PizXmSNZj-178" target="io0IvnrYup7PizXmSNZj-90">
          <mxGeometry relative="1" as="geometry">
            <mxPoint x="350" y="690" as="targetPoint" />
            <Array as="points">
              <mxPoint x="1303" y="1230" />
              <mxPoint x="250" y="1230" />
              <mxPoint x="250" y="690" />
            </Array>
          </mxGeometry>
        </mxCell>
        <mxCell id="io0IvnrYup7PizXmSNZj-178" value="Output Pilihan&lt;div&gt;Tidak Valid&lt;/div&gt;" style="shape=parallelogram;perimeter=parallelogramPerimeter;whiteSpace=wrap;html=1;fixedSize=1;" parent="io0IvnrYup7PizXmSNZj-1" vertex="1">
          <mxGeometry x="1243" y="1038.5" width="120" height="60" as="geometry" />
        </mxCell>
        <mxCell id="io0IvnrYup7PizXmSNZj-267" style="edgeStyle=orthogonalEdgeStyle;rounded=0;orthogonalLoop=1;jettySize=auto;html=1;" parent="io0IvnrYup7PizXmSNZj-1" edge="1">
          <mxGeometry relative="1" as="geometry">
            <mxPoint x="492.5" y="964.8790243902438" as="targetPoint" />
            <mxPoint x="452.5" y="964.44" as="sourcePoint" />
          </mxGeometry>
        </mxCell>
        <mxCell id="HSUDVZScpXekJybWchOK-1" value="" style="edgeStyle=orthogonalEdgeStyle;rounded=0;orthogonalLoop=1;jettySize=auto;html=1;" parent="io0IvnrYup7PizXmSNZj-1" source="HSUDVZScpXekJybWchOK-0" target="io0IvnrYup7PizXmSNZj-90" edge="1">
          <mxGeometry relative="1" as="geometry" />
        </mxCell>
        <mxCell id="HSUDVZScpXekJybWchOK-0" value="Menu Admin" style="shape=offPageConnector;whiteSpace=wrap;html=1;" parent="io0IvnrYup7PizXmSNZj-1" vertex="1">
          <mxGeometry x="373.5" y="547" width="63" height="63" as="geometry" />
        </mxCell>
        <mxCell id="0NnclfzAlgQ6PulSzdmn-4" value="Menu Utama" style="shape=offPageConnector;whiteSpace=wrap;html=1;" parent="io0IvnrYup7PizXmSNZj-1" vertex="1">
          <mxGeometry x="805" y="1533" width="70" height="70" as="geometry" />
        </mxCell>
        <mxCell id="Br2Rw-Fn_BDB3hlPwDXJ-0" value="Menu 5. Kelola Peserta Event" style="ellipse;whiteSpace=wrap;html=1;aspect=fixed;" parent="io0IvnrYup7PizXmSNZj-1" vertex="1">
          <mxGeometry x="1277" y="775" width="80" height="80" as="geometry" />
        </mxCell>
        <mxCell id="Br2Rw-Fn_BDB3hlPwDXJ-9" value="" style="edgeStyle=orthogonalEdgeStyle;rounded=0;orthogonalLoop=1;jettySize=auto;html=1;" parent="io0IvnrYup7PizXmSNZj-1" target="io0IvnrYup7PizXmSNZj-117" edge="1">
          <mxGeometry relative="1" as="geometry">
            <mxPoint x="351.9999999999998" y="1366" as="sourcePoint" />
          </mxGeometry>
        </mxCell>
        <mxCell id="rSSt28zgrGAlVdXAVA-i-1" style="edgeStyle=orthogonalEdgeStyle;rounded=0;orthogonalLoop=1;jettySize=auto;html=1;exitX=0.5;exitY=1;exitDx=0;exitDy=0;entryX=0;entryY=0.5;entryDx=0;entryDy=0;" edge="1" parent="io0IvnrYup7PizXmSNZj-1" source="rSSt28zgrGAlVdXAVA-i-0" target="io0IvnrYup7PizXmSNZj-90">
          <mxGeometry relative="1" as="geometry">
            <Array as="points">
              <mxPoint x="405" y="1230" />
              <mxPoint x="250" y="1230" />
              <mxPoint x="250" y="690" />
            </Array>
          </mxGeometry>
        </mxCell>
        <mxCell id="rSSt28zgrGAlVdXAVA-i-0" value="&amp;nbsp; &amp;nbsp;Output Tampilan&amp;nbsp;&lt;div&gt;Daftar Event&lt;/div&gt;" style="shape=parallelogram;perimeter=parallelogramPerimeter;whiteSpace=wrap;html=1;fixedSize=1;" vertex="1" parent="io0IvnrYup7PizXmSNZj-1">
          <mxGeometry x="345" y="920" width="120" height="60" as="geometry" />
        </mxCell>
        <mxCell id="rSSt28zgrGAlVdXAVA-i-5" style="edgeStyle=orthogonalEdgeStyle;rounded=0;orthogonalLoop=1;jettySize=auto;html=1;entryX=0.5;entryY=0;entryDx=0;entryDy=0;" edge="1" parent="io0IvnrYup7PizXmSNZj-1" source="rSSt28zgrGAlVdXAVA-i-2" target="rSSt28zgrGAlVdXAVA-i-4">
          <mxGeometry relative="1" as="geometry" />
        </mxCell>
        <mxCell id="rSSt28zgrGAlVdXAVA-i-2" value="Input Nama,&lt;div&gt;Hadiah,&lt;span style=&quot;background-color: transparent; color: light-dark(rgb(0, 0, 0), rgb(255, 255, 255));&quot;&gt;Status&lt;/span&gt;&lt;/div&gt;" style="shape=parallelogram;perimeter=parallelogramPerimeter;whiteSpace=wrap;html=1;fixedSize=1;" vertex="1" parent="io0IvnrYup7PizXmSNZj-1">
          <mxGeometry x="562" y="920" width="120" height="60" as="geometry" />
        </mxCell>
        <mxCell id="rSSt28zgrGAlVdXAVA-i-10" style="edgeStyle=orthogonalEdgeStyle;rounded=0;orthogonalLoop=1;jettySize=auto;html=1;entryX=0;entryY=0.5;entryDx=0;entryDy=0;" edge="1" parent="io0IvnrYup7PizXmSNZj-1" source="rSSt28zgrGAlVdXAVA-i-4" target="io0IvnrYup7PizXmSNZj-90">
          <mxGeometry relative="1" as="geometry">
            <Array as="points">
              <mxPoint x="622" y="1230" />
              <mxPoint x="250" y="1230" />
              <mxPoint x="250" y="690" />
            </Array>
          </mxGeometry>
        </mxCell>
        <mxCell id="rSSt28zgrGAlVdXAVA-i-4" value="&amp;nbsp; &amp;nbsp;Output Event berhasil&amp;nbsp;&lt;div&gt;ditambahkan&lt;/div&gt;" style="shape=parallelogram;perimeter=parallelogramPerimeter;whiteSpace=wrap;html=1;fixedSize=1;" vertex="1" parent="io0IvnrYup7PizXmSNZj-1">
          <mxGeometry x="562" y="1010" width="120" height="60" as="geometry" />
        </mxCell>
        <mxCell id="rSSt28zgrGAlVdXAVA-i-11" style="edgeStyle=orthogonalEdgeStyle;rounded=0;orthogonalLoop=1;jettySize=auto;html=1;" edge="1" parent="io0IvnrYup7PizXmSNZj-1">
          <mxGeometry relative="1" as="geometry">
            <mxPoint x="708" y="1060.4390243902437" as="targetPoint" />
            <mxPoint x="668" y="1060" as="sourcePoint" />
          </mxGeometry>
        </mxCell>
        <mxCell id="rSSt28zgrGAlVdXAVA-i-12" style="edgeStyle=orthogonalEdgeStyle;rounded=0;orthogonalLoop=1;jettySize=auto;html=1;" edge="1" parent="io0IvnrYup7PizXmSNZj-1">
          <mxGeometry relative="1" as="geometry">
            <mxPoint x="581" y="926.4390243902437" as="targetPoint" />
            <mxPoint x="541" y="926" as="sourcePoint" />
          </mxGeometry>
        </mxCell>
        <mxCell id="rSSt28zgrGAlVdXAVA-i-40" value="" style="edgeStyle=orthogonalEdgeStyle;rounded=0;orthogonalLoop=1;jettySize=auto;html=1;" edge="1" parent="io0IvnrYup7PizXmSNZj-1" source="rSSt28zgrGAlVdXAVA-i-13" target="rSSt28zgrGAlVdXAVA-i-39">
          <mxGeometry relative="1" as="geometry" />
        </mxCell>
        <mxCell id="rSSt28zgrGAlVdXAVA-i-13" value="Input Nama,&lt;div&gt;Hadiah,&lt;span style=&quot;background-color: transparent; color: light-dark(rgb(0, 0, 0), rgb(255, 255, 255));&quot;&gt;Status&lt;/span&gt;&lt;/div&gt;&lt;div&gt;&lt;span style=&quot;background-color: transparent; color: light-dark(rgb(0, 0, 0), rgb(255, 255, 255));&quot;&gt;(yg ingin diubah)&lt;/span&gt;&lt;/div&gt;" style="shape=parallelogram;perimeter=parallelogramPerimeter;whiteSpace=wrap;html=1;fixedSize=1;" vertex="1" parent="io0IvnrYup7PizXmSNZj-1">
          <mxGeometry x="759" y="930" width="120" height="60" as="geometry" />
        </mxCell>
        <mxCell id="rSSt28zgrGAlVdXAVA-i-15" style="edgeStyle=orthogonalEdgeStyle;rounded=0;orthogonalLoop=1;jettySize=auto;html=1;" edge="1" parent="io0IvnrYup7PizXmSNZj-1">
          <mxGeometry relative="1" as="geometry">
            <mxPoint x="779" y="936.9390243902437" as="targetPoint" />
            <mxPoint x="739" y="936.5" as="sourcePoint" />
          </mxGeometry>
        </mxCell>
        <mxCell id="rSSt28zgrGAlVdXAVA-i-21" style="edgeStyle=orthogonalEdgeStyle;rounded=0;orthogonalLoop=1;jettySize=auto;html=1;exitX=0.5;exitY=1;exitDx=0;exitDy=0;entryX=0;entryY=0.5;entryDx=0;entryDy=0;" edge="1" parent="io0IvnrYup7PizXmSNZj-1" source="rSSt28zgrGAlVdXAVA-i-18" target="io0IvnrYup7PizXmSNZj-90">
          <mxGeometry relative="1" as="geometry">
            <mxPoint x="789.75" y="1077.0000000000002" as="sourcePoint" />
            <mxPoint x="350" y="690" as="targetPoint" />
            <Array as="points">
              <mxPoint x="820" y="1230" />
              <mxPoint x="250" y="1230" />
              <mxPoint x="250" y="690" />
            </Array>
          </mxGeometry>
        </mxCell>
        <mxCell id="rSSt28zgrGAlVdXAVA-i-18" value="&amp;nbsp; &amp;nbsp;Output Event berhasil&amp;nbsp;&lt;div&gt;ditambahkan&lt;/div&gt;" style="shape=parallelogram;perimeter=parallelogramPerimeter;whiteSpace=wrap;html=1;fixedSize=1;" vertex="1" parent="io0IvnrYup7PizXmSNZj-1">
          <mxGeometry x="759" y="1140" width="120" height="60" as="geometry" />
        </mxCell>
        <mxCell id="rSSt28zgrGAlVdXAVA-i-20" style="edgeStyle=orthogonalEdgeStyle;rounded=0;orthogonalLoop=1;jettySize=auto;html=1;" edge="1" parent="io0IvnrYup7PizXmSNZj-1">
          <mxGeometry relative="1" as="geometry">
            <mxPoint x="903.5" y="1191.4390243902437" as="targetPoint" />
            <mxPoint x="863.5" y="1191" as="sourcePoint" />
          </mxGeometry>
        </mxCell>
        <mxCell id="rSSt28zgrGAlVdXAVA-i-27" value="" style="edgeStyle=orthogonalEdgeStyle;rounded=0;orthogonalLoop=1;jettySize=auto;html=1;" edge="1" parent="io0IvnrYup7PizXmSNZj-1" source="rSSt28zgrGAlVdXAVA-i-23" target="rSSt28zgrGAlVdXAVA-i-26">
          <mxGeometry relative="1" as="geometry" />
        </mxCell>
        <mxCell id="rSSt28zgrGAlVdXAVA-i-36" value="True" style="edgeLabel;html=1;align=center;verticalAlign=middle;resizable=0;points=[];" vertex="1" connectable="0" parent="rSSt28zgrGAlVdXAVA-i-27">
          <mxGeometry x="-0.1074" y="1" relative="1" as="geometry">
            <mxPoint as="offset" />
          </mxGeometry>
        </mxCell>
        <mxCell id="rSSt28zgrGAlVdXAVA-i-35" value="" style="edgeStyle=orthogonalEdgeStyle;rounded=0;orthogonalLoop=1;jettySize=auto;html=1;" edge="1" parent="io0IvnrYup7PizXmSNZj-1" source="rSSt28zgrGAlVdXAVA-i-23" target="Br2Rw-Fn_BDB3hlPwDXJ-0">
          <mxGeometry relative="1" as="geometry" />
        </mxCell>
        <mxCell id="rSSt28zgrGAlVdXAVA-i-37" value="False" style="edgeLabel;html=1;align=center;verticalAlign=middle;resizable=0;points=[];" vertex="1" connectable="0" parent="rSSt28zgrGAlVdXAVA-i-35">
          <mxGeometry x="-0.0523" relative="1" as="geometry">
            <mxPoint as="offset" />
          </mxGeometry>
        </mxCell>
        <mxCell id="rSSt28zgrGAlVdXAVA-i-23" value="If Pilihan == 3&lt;div&gt;&amp;nbsp;(Hapus Event)&lt;span style=&quot;background-color: transparent; text-wrap-mode: nowrap; color: rgba(0, 0, 0, 0); font-family: monospace; font-size: 0px; text-align: start;&quot;&gt;%3CmxGraphModel%3E%3Croot%3E%3CmxCell%20id%3D%220%22%2F%3E%3CmxCell%20id%3D%221%22%20parent%3D%220%22%2F%3E%3CmxCell%20id%3D%222%22%20value%3D%22If%20Pilihan%20%3D%3D%202%26lt%3Bspan%20style%3D%26quot%3Bcolor%3A%20rgba(0%2C%200%2C%200%2C%200)%3B%20font-family%3A%20monospace%3B%20font-size%3A%200px%3B%20text-align%3A%20start%3B%20text-wrap-mode%3A%20nowrap%3B%26quot%3B%26gt%3B%253CmxGraphModel%253E%253Croot%253E%253CmxCell%2520id%253D%25220%2522%252F%253E%253CmxCell%2520id%253D%25221%2522%2520parent%253D%25220%2522%252F%253E%253CmxCell%2520id%253D%25222%2522%2520value%253D%2522If%2520Pilihan%2520%253D%253D%25201%2522%2520style%253D%2522rhombus%253BwhiteSpace%253Dwrap%253Bhtml%253D1%253B%2522%2520vertex%253D%25221%2522%2520parent%253D%25221%2522%253E%253CmxGeometry%2520x%253D%2522354.5%2522%2520y%253D%2522780%2522%2520width%253D%2522100%2522%2520height%253D%2522100%2522%2520as%253D%2522geometry%2522%252F%253E%253C%252FmxCell%253E%253C%252Froot%253E%253C%252FmxGraphModel%253E%26lt%3B%2Fspan%26gt%3B%26lt%3Bspan%20style%3D%26quot%3Bcolor%3A%20rgba(0%2C%200%2C%200%2C%200)%3B%20font-family%3A%20monospace%3B%20font-size%3A%200px%3B%20text-align%3A%20start%3B%20text-wrap-mode%3A%20nowrap%3B%26quot%3B%26gt%3B%253CmxGraphModel%253E%253Croot%253E%253CmxCell%2520id%253D%25220%2522%252F%253E%253CmxCell%2520id%253D%25221%2522%2520parent%253D%25220%2522%252F%253E%253CmxCell%2520id%253D%25222%2522%2520value%253D%2522If%2520Pilihan%2520%253D%253D%25201%2522%2520style%253D%2522rhombus%253BwhiteSpace%253Dwrap%253Bhtml%253D1%253B%2522%2520vertex%253D%25221%2522%2520parent%253D%25221%2522%253E%253CmxGeometry%2520x%253D%2522354.5%2522%2520y%253D%2522780%2522%2520width%253D%2522100%2522%2520height%253D%2522100%2522%2520as%253D%2522geometry%2522%252F%253E%253C%252FmxCell%253E%253C%252Froot%253E%253C%252FmxGraphModel%253E%26lt%3B%2Fspan%26gt%3B%22%20style%3D%22rhombus%3BwhiteSpace%3Dwrap%3Bhtml%3D1%3B%22%20vertex%3D%221%22%20parent%3D%221%22%3E%3CmxGeometry%20x%3D%22480%22%20y%3D%22780%22%20width%3D%22100%22%20height%3D%22100%22%20as%3D%22geometry%22%2F%3E%3C%2FmxCell%3E%3C%2Froot%3E%3C%2FmxGraphModel%3E%3CmxGraphModel%3E%3Croot%3E%3CmxCell%20id%3D%220%22%2F%3E%3CmxCell%20id%3D%221%22%20parent%3D%220%22%2F%3E%3CmxCell%20id%3D%222%22%20value%3D%22If%20Pilihan%20%3D%3D%201%22%20style%3D%22rhombus%3BwhiteSpace%3Dwrap%3Bhtml%3D1%3B%22%20vertex%3D%221%22%20parent%3D%221%22%3E%3CmxGeometry%20x%3D%22354.5%22%20y%3D%22780%22%20width%3D%22100%22%20height%3D%22100%22%20as%3D%22geometry%22%2F%3E%3C%2FmxCell%3E%3C%2Froot%3E%3C%2FmxGraphModel%3E&lt;/span&gt;&lt;span style=&quot;background-color: transparent; text-wrap-mode: nowrap; color: rgba(0, 0, 0, 0); font-family: monospace; font-size: 0px; text-align: start;&quot;&gt;%3CmxGraphModel%3E%3Croot%3E%3CmxCell%20id%3D%220%22%2F%3E%3CmxCell%20id%3D%221%22%20parent%3D%220%22%2F%3E%3CmxCell%20id%3D%222%22%20value%3D%22If%20Pilihan%20%3D%3D%201%22%20style%3D%22rhombus%3BwhiteSpace%3Dwrap%3Bhtml%3D1%3B%22%20vertex%3D%221%22%20parent%3D%221%22%3E%3CmxGeometry%20x%3D%22354.5%22%20y%3D%22780%22%20width%3D%22100%22%20height%3D%22100%22%20as%3D%22geometry%22%2F%3E%3C%2FmxCell%3E%3C%2Froot%3E%3C%2FmxGraphModel%33&lt;/span&gt;&lt;/div&gt;" style="rhombus;whiteSpace=wrap;html=1;" vertex="1" parent="io0IvnrYup7PizXmSNZj-1">
          <mxGeometry x="1051" y="755" width="120" height="120" as="geometry" />
        </mxCell>
        <mxCell id="rSSt28zgrGAlVdXAVA-i-32" value="" style="edgeStyle=orthogonalEdgeStyle;rounded=0;orthogonalLoop=1;jettySize=auto;html=1;" edge="1" parent="io0IvnrYup7PizXmSNZj-1" source="rSSt28zgrGAlVdXAVA-i-26" target="io0IvnrYup7PizXmSNZj-176">
          <mxGeometry relative="1" as="geometry" />
        </mxCell>
        <mxCell id="rSSt28zgrGAlVdXAVA-i-26" value="Input Event yang ingin dihapus" style="shape=parallelogram;perimeter=parallelogramPerimeter;whiteSpace=wrap;html=1;fixedSize=1;" vertex="1" parent="io0IvnrYup7PizXmSNZj-1">
          <mxGeometry x="1053" y="930" width="120" height="60" as="geometry" />
        </mxCell>
        <mxCell id="rSSt28zgrGAlVdXAVA-i-33" style="edgeStyle=orthogonalEdgeStyle;rounded=0;orthogonalLoop=1;jettySize=auto;html=1;entryX=0;entryY=0.5;entryDx=0;entryDy=0;" edge="1" parent="io0IvnrYup7PizXmSNZj-1" source="rSSt28zgrGAlVdXAVA-i-28" target="io0IvnrYup7PizXmSNZj-90">
          <mxGeometry relative="1" as="geometry">
            <Array as="points">
              <mxPoint x="1110" y="1230" />
              <mxPoint x="250" y="1230" />
              <mxPoint x="250" y="690" />
            </Array>
          </mxGeometry>
        </mxCell>
        <mxCell id="rSSt28zgrGAlVdXAVA-i-28" value="&amp;nbsp; &amp;nbsp;Output Event berhasil&amp;nbsp;&lt;div&gt;dihapus&lt;/div&gt;" style="shape=parallelogram;perimeter=parallelogramPerimeter;whiteSpace=wrap;html=1;fixedSize=1;" vertex="1" parent="io0IvnrYup7PizXmSNZj-1">
          <mxGeometry x="1053" y="1140" width="120" height="60" as="geometry" />
        </mxCell>
        <mxCell id="rSSt28zgrGAlVdXAVA-i-31" style="edgeStyle=orthogonalEdgeStyle;rounded=0;orthogonalLoop=1;jettySize=auto;html=1;" edge="1" parent="io0IvnrYup7PizXmSNZj-1">
          <mxGeometry relative="1" as="geometry">
            <mxPoint x="1197.5" y="1190.4990243902437" as="targetPoint" />
            <mxPoint x="1157.5" y="1190.06" as="sourcePoint" />
            <Array as="points">
              <mxPoint x="1167.5" y="1190" />
            </Array>
          </mxGeometry>
        </mxCell>
        <mxCell id="rSSt28zgrGAlVdXAVA-i-42" value="" style="edgeStyle=orthogonalEdgeStyle;rounded=0;orthogonalLoop=1;jettySize=auto;html=1;" edge="1" parent="io0IvnrYup7PizXmSNZj-1" source="rSSt28zgrGAlVdXAVA-i-39" target="rSSt28zgrGAlVdXAVA-i-41">
          <mxGeometry relative="1" as="geometry" />
        </mxCell>
        <mxCell id="rSSt28zgrGAlVdXAVA-i-44" value="False" style="edgeLabel;html=1;align=center;verticalAlign=middle;resizable=0;points=[];" vertex="1" connectable="0" parent="rSSt28zgrGAlVdXAVA-i-42">
          <mxGeometry x="-0.0919" relative="1" as="geometry">
            <mxPoint as="offset" />
          </mxGeometry>
        </mxCell>
        <mxCell id="rSSt28zgrGAlVdXAVA-i-45" value="" style="edgeStyle=orthogonalEdgeStyle;rounded=0;orthogonalLoop=1;jettySize=auto;html=1;" edge="1" parent="io0IvnrYup7PizXmSNZj-1" source="rSSt28zgrGAlVdXAVA-i-39" target="rSSt28zgrGAlVdXAVA-i-18">
          <mxGeometry relative="1" as="geometry" />
        </mxCell>
        <mxCell id="rSSt28zgrGAlVdXAVA-i-46" value="True" style="edgeLabel;html=1;align=center;verticalAlign=middle;resizable=0;points=[];" vertex="1" connectable="0" parent="rSSt28zgrGAlVdXAVA-i-45">
          <mxGeometry x="0.2219" relative="1" as="geometry">
            <mxPoint as="offset" />
          </mxGeometry>
        </mxCell>
        <mxCell id="rSSt28zgrGAlVdXAVA-i-39" value="If Input&amp;nbsp;&lt;div&gt;&lt;span style=&quot;background-color: transparent; color: light-dark(rgb(0, 0, 0), rgb(255, 255, 255));&quot;&gt;Pilihan&amp;nbsp;&lt;/span&gt;&lt;span style=&quot;background-color: transparent; color: light-dark(rgb(0, 0, 0), rgb(255, 255, 255));&quot;&gt;Ada&lt;/span&gt;&lt;/div&gt;" style="rhombus;whiteSpace=wrap;html=1;" vertex="1" parent="io0IvnrYup7PizXmSNZj-1">
          <mxGeometry x="770.5" y="1020" width="97" height="97" as="geometry" />
        </mxCell>
        <mxCell id="rSSt28zgrGAlVdXAVA-i-43" style="edgeStyle=orthogonalEdgeStyle;rounded=0;orthogonalLoop=1;jettySize=auto;html=1;" edge="1" parent="io0IvnrYup7PizXmSNZj-1" source="rSSt28zgrGAlVdXAVA-i-41" target="io0IvnrYup7PizXmSNZj-90">
          <mxGeometry relative="1" as="geometry">
            <Array as="points">
              <mxPoint x="960" y="1230" />
              <mxPoint x="250" y="1230" />
              <mxPoint x="250" y="690" />
            </Array>
          </mxGeometry>
        </mxCell>
        <mxCell id="rSSt28zgrGAlVdXAVA-i-41" value="Output Pilihan&lt;div&gt;Tidak Valid&lt;/div&gt;" style="shape=parallelogram;perimeter=parallelogramPerimeter;whiteSpace=wrap;html=1;fixedSize=1;" vertex="1" parent="io0IvnrYup7PizXmSNZj-1">
          <mxGeometry x="900" y="1038.5" width="120" height="60" as="geometry" />
        </mxCell>
        <mxCell id="rSSt28zgrGAlVdXAVA-i-47" value="Menu 5. Kelola Peserta Event" style="ellipse;whiteSpace=wrap;html=1;aspect=fixed;" vertex="1" parent="io0IvnrYup7PizXmSNZj-1">
          <mxGeometry x="312" y="1290" width="80" height="80" as="geometry" />
        </mxCell>
        <mxCell id="rSSt28zgrGAlVdXAVA-i-65" style="edgeStyle=orthogonalEdgeStyle;rounded=0;orthogonalLoop=1;jettySize=auto;html=1;entryX=0;entryY=0.5;entryDx=0;entryDy=0;" edge="1" parent="io0IvnrYup7PizXmSNZj-1" source="rSSt28zgrGAlVdXAVA-i-48" target="io0IvnrYup7PizXmSNZj-90">
          <mxGeometry relative="1" as="geometry">
            <Array as="points">
              <mxPoint x="1010" y="1726" />
              <mxPoint x="1010" y="2170" />
              <mxPoint x="250" y="2170" />
              <mxPoint x="250" y="690" />
            </Array>
          </mxGeometry>
        </mxCell>
        <mxCell id="rSSt28zgrGAlVdXAVA-i-79" style="edgeStyle=orthogonalEdgeStyle;rounded=0;orthogonalLoop=1;jettySize=auto;html=1;exitX=1;exitY=1;exitDx=0;exitDy=0;" edge="1" parent="io0IvnrYup7PizXmSNZj-1" source="rSSt28zgrGAlVdXAVA-i-48">
          <mxGeometry relative="1" as="geometry">
            <mxPoint x="600" y="1747.5384615384614" as="targetPoint" />
          </mxGeometry>
        </mxCell>
        <mxCell id="rSSt28zgrGAlVdXAVA-i-48" value="Output Pilihan&lt;div&gt;Tidak Valid&lt;/div&gt;" style="shape=parallelogram;perimeter=parallelogramPerimeter;whiteSpace=wrap;html=1;fixedSize=1;" vertex="1" parent="io0IvnrYup7PizXmSNZj-1">
          <mxGeometry x="465" y="1696" width="120" height="60" as="geometry" />
        </mxCell>
        <mxCell id="rSSt28zgrGAlVdXAVA-i-51" value="" style="edgeStyle=orthogonalEdgeStyle;rounded=0;orthogonalLoop=1;jettySize=auto;html=1;" edge="1" parent="io0IvnrYup7PizXmSNZj-1" source="rSSt28zgrGAlVdXAVA-i-49" target="io0IvnrYup7PizXmSNZj-132">
          <mxGeometry relative="1" as="geometry" />
        </mxCell>
        <mxCell id="rSSt28zgrGAlVdXAVA-i-49" value="Input ID Peseta" style="shape=parallelogram;perimeter=parallelogramPerimeter;whiteSpace=wrap;html=1;fixedSize=1;" vertex="1" parent="io0IvnrYup7PizXmSNZj-1">
          <mxGeometry x="292" y="1570" width="120" height="60" as="geometry" />
        </mxCell>
        <mxCell id="rSSt28zgrGAlVdXAVA-i-56" value="" style="edgeStyle=orthogonalEdgeStyle;rounded=0;orthogonalLoop=1;jettySize=auto;html=1;" edge="1" parent="io0IvnrYup7PizXmSNZj-1" source="rSSt28zgrGAlVdXAVA-i-53" target="rSSt28zgrGAlVdXAVA-i-55">
          <mxGeometry relative="1" as="geometry" />
        </mxCell>
        <mxCell id="rSSt28zgrGAlVdXAVA-i-57" value="False" style="edgeLabel;html=1;align=center;verticalAlign=middle;resizable=0;points=[];" vertex="1" connectable="0" parent="rSSt28zgrGAlVdXAVA-i-56">
          <mxGeometry x="0.0565" y="-2" relative="1" as="geometry">
            <mxPoint as="offset" />
          </mxGeometry>
        </mxCell>
        <mxCell id="rSSt28zgrGAlVdXAVA-i-60" value="" style="edgeStyle=orthogonalEdgeStyle;rounded=0;orthogonalLoop=1;jettySize=auto;html=1;" edge="1" parent="io0IvnrYup7PizXmSNZj-1" source="rSSt28zgrGAlVdXAVA-i-53" target="rSSt28zgrGAlVdXAVA-i-59">
          <mxGeometry relative="1" as="geometry" />
        </mxCell>
        <mxCell id="rSSt28zgrGAlVdXAVA-i-71" value="True" style="edgeLabel;html=1;align=center;verticalAlign=middle;resizable=0;points=[];" vertex="1" connectable="0" parent="rSSt28zgrGAlVdXAVA-i-60">
          <mxGeometry x="-0.4143" y="-4" relative="1" as="geometry">
            <mxPoint as="offset" />
          </mxGeometry>
        </mxCell>
        <mxCell id="rSSt28zgrGAlVdXAVA-i-53" value="If Pilihan == 1&lt;div&gt;(Tambah Peserta)&lt;/div&gt;" style="rhombus;whiteSpace=wrap;html=1;" vertex="1" parent="io0IvnrYup7PizXmSNZj-1">
          <mxGeometry x="292" y="1930" width="120" height="120" as="geometry" />
        </mxCell>
        <mxCell id="rSSt28zgrGAlVdXAVA-i-62" value="" style="edgeStyle=orthogonalEdgeStyle;rounded=0;orthogonalLoop=1;jettySize=auto;html=1;" edge="1" parent="io0IvnrYup7PizXmSNZj-1" source="rSSt28zgrGAlVdXAVA-i-55" target="rSSt28zgrGAlVdXAVA-i-61">
          <mxGeometry relative="1" as="geometry" />
        </mxCell>
        <mxCell id="rSSt28zgrGAlVdXAVA-i-70" value="True" style="edgeLabel;html=1;align=center;verticalAlign=middle;resizable=0;points=[];" vertex="1" connectable="0" parent="rSSt28zgrGAlVdXAVA-i-62">
          <mxGeometry x="-0.1286" y="-2" relative="1" as="geometry">
            <mxPoint as="offset" />
          </mxGeometry>
        </mxCell>
        <mxCell id="rSSt28zgrGAlVdXAVA-i-68" value="" style="edgeStyle=orthogonalEdgeStyle;rounded=0;orthogonalLoop=1;jettySize=auto;html=1;" edge="1" parent="io0IvnrYup7PizXmSNZj-1" source="rSSt28zgrGAlVdXAVA-i-55" target="rSSt28zgrGAlVdXAVA-i-67">
          <mxGeometry relative="1" as="geometry" />
        </mxCell>
        <mxCell id="rSSt28zgrGAlVdXAVA-i-69" value="False" style="edgeLabel;html=1;align=center;verticalAlign=middle;resizable=0;points=[];" vertex="1" connectable="0" parent="rSSt28zgrGAlVdXAVA-i-68">
          <mxGeometry x="-0.1048" relative="1" as="geometry">
            <mxPoint as="offset" />
          </mxGeometry>
        </mxCell>
        <mxCell id="rSSt28zgrGAlVdXAVA-i-55" value="If Pilihan == 2&lt;div&gt;(Hapus Peserta)&lt;/div&gt;" style="rhombus;whiteSpace=wrap;html=1;" vertex="1" parent="io0IvnrYup7PizXmSNZj-1">
          <mxGeometry x="530" y="1930" width="120" height="120" as="geometry" />
        </mxCell>
        <mxCell id="rSSt28zgrGAlVdXAVA-i-63" style="edgeStyle=orthogonalEdgeStyle;rounded=0;orthogonalLoop=1;jettySize=auto;html=1;entryX=0;entryY=0.5;entryDx=0;entryDy=0;" edge="1" parent="io0IvnrYup7PizXmSNZj-1" source="rSSt28zgrGAlVdXAVA-i-59" target="io0IvnrYup7PizXmSNZj-90">
          <mxGeometry relative="1" as="geometry">
            <Array as="points">
              <mxPoint x="352" y="2170" />
              <mxPoint x="250" y="2170" />
              <mxPoint x="250" y="690" />
            </Array>
          </mxGeometry>
        </mxCell>
        <mxCell id="rSSt28zgrGAlVdXAVA-i-83" style="edgeStyle=orthogonalEdgeStyle;rounded=0;orthogonalLoop=1;jettySize=auto;html=1;exitX=1;exitY=1;exitDx=0;exitDy=0;" edge="1" parent="io0IvnrYup7PizXmSNZj-1" source="rSSt28zgrGAlVdXAVA-i-59">
          <mxGeometry relative="1" as="geometry">
            <mxPoint x="430" y="2141.3846153846152" as="targetPoint" />
          </mxGeometry>
        </mxCell>
        <mxCell id="rSSt28zgrGAlVdXAVA-i-59" value="&amp;nbsp; &amp;nbsp;Output Peserta berhasil ditambah" style="shape=parallelogram;perimeter=parallelogramPerimeter;whiteSpace=wrap;html=1;fixedSize=1;" vertex="1" parent="io0IvnrYup7PizXmSNZj-1">
          <mxGeometry x="292" y="2090" width="120" height="60" as="geometry" />
        </mxCell>
        <mxCell id="rSSt28zgrGAlVdXAVA-i-64" style="edgeStyle=orthogonalEdgeStyle;rounded=0;orthogonalLoop=1;jettySize=auto;html=1;entryX=0;entryY=0.5;entryDx=0;entryDy=0;" edge="1" parent="io0IvnrYup7PizXmSNZj-1" source="rSSt28zgrGAlVdXAVA-i-61" target="io0IvnrYup7PizXmSNZj-90">
          <mxGeometry relative="1" as="geometry">
            <Array as="points">
              <mxPoint x="590" y="2170" />
              <mxPoint x="250" y="2170" />
              <mxPoint x="250" y="690" />
            </Array>
          </mxGeometry>
        </mxCell>
        <mxCell id="rSSt28zgrGAlVdXAVA-i-82" style="edgeStyle=orthogonalEdgeStyle;rounded=0;orthogonalLoop=1;jettySize=auto;html=1;exitX=1;exitY=1;exitDx=0;exitDy=0;" edge="1" parent="io0IvnrYup7PizXmSNZj-1" source="rSSt28zgrGAlVdXAVA-i-61">
          <mxGeometry relative="1" as="geometry">
            <mxPoint x="670" y="2141.3846153846152" as="targetPoint" />
          </mxGeometry>
        </mxCell>
        <mxCell id="rSSt28zgrGAlVdXAVA-i-61" value="&amp;nbsp; &amp;nbsp;Output Peserta&lt;div&gt;berhasil dihapus&lt;/div&gt;" style="shape=parallelogram;perimeter=parallelogramPerimeter;whiteSpace=wrap;html=1;fixedSize=1;" vertex="1" parent="io0IvnrYup7PizXmSNZj-1">
          <mxGeometry x="530" y="2090" width="120" height="60" as="geometry" />
        </mxCell>
        <mxCell id="rSSt28zgrGAlVdXAVA-i-72" style="edgeStyle=orthogonalEdgeStyle;rounded=0;orthogonalLoop=1;jettySize=auto;html=1;entryX=0;entryY=0.5;entryDx=0;entryDy=0;" edge="1" parent="io0IvnrYup7PizXmSNZj-1" source="rSSt28zgrGAlVdXAVA-i-67" target="io0IvnrYup7PizXmSNZj-90">
          <mxGeometry relative="1" as="geometry">
            <Array as="points">
              <mxPoint x="760" y="2170" />
              <mxPoint x="250" y="2170" />
              <mxPoint x="250" y="690" />
            </Array>
          </mxGeometry>
        </mxCell>
        <mxCell id="rSSt28zgrGAlVdXAVA-i-81" style="edgeStyle=orthogonalEdgeStyle;rounded=0;orthogonalLoop=1;jettySize=auto;html=1;exitX=1;exitY=1;exitDx=0;exitDy=0;" edge="1" parent="io0IvnrYup7PizXmSNZj-1" source="rSSt28zgrGAlVdXAVA-i-67">
          <mxGeometry relative="1" as="geometry">
            <mxPoint x="840" y="2011.3846153846152" as="targetPoint" />
          </mxGeometry>
        </mxCell>
        <mxCell id="rSSt28zgrGAlVdXAVA-i-67" value="Output Pilihan&lt;div&gt;Tidak Valid&lt;/div&gt;" style="shape=parallelogram;perimeter=parallelogramPerimeter;whiteSpace=wrap;html=1;fixedSize=1;" vertex="1" parent="io0IvnrYup7PizXmSNZj-1">
          <mxGeometry x="700" y="1960" width="120" height="60" as="geometry" />
        </mxCell>
        <mxCell id="rSSt28zgrGAlVdXAVA-i-74" style="edgeStyle=orthogonalEdgeStyle;rounded=0;orthogonalLoop=1;jettySize=auto;html=1;" edge="1" parent="io0IvnrYup7PizXmSNZj-1">
          <mxGeometry relative="1" as="geometry">
            <mxPoint x="1043" y="1090.4390243902437" as="targetPoint" />
            <mxPoint x="1003" y="1090" as="sourcePoint" />
          </mxGeometry>
        </mxCell>
        <mxCell id="rSSt28zgrGAlVdXAVA-i-75" style="edgeStyle=orthogonalEdgeStyle;rounded=0;orthogonalLoop=1;jettySize=auto;html=1;" edge="1" parent="io0IvnrYup7PizXmSNZj-1">
          <mxGeometry relative="1" as="geometry">
            <mxPoint x="1072" y="934.4390243902437" as="targetPoint" />
            <mxPoint x="1032" y="934" as="sourcePoint" />
          </mxGeometry>
        </mxCell>
        <mxCell id="rSSt28zgrGAlVdXAVA-i-76" style="edgeStyle=orthogonalEdgeStyle;rounded=0;orthogonalLoop=1;jettySize=auto;html=1;" edge="1" parent="io0IvnrYup7PizXmSNZj-1">
          <mxGeometry relative="1" as="geometry">
            <mxPoint x="1387" y="1090.4390243902437" as="targetPoint" />
            <mxPoint x="1347" y="1090" as="sourcePoint" />
          </mxGeometry>
        </mxCell>
        <mxCell id="rSSt28zgrGAlVdXAVA-i-77" style="edgeStyle=orthogonalEdgeStyle;rounded=0;orthogonalLoop=1;jettySize=auto;html=1;" edge="1" parent="io0IvnrYup7PizXmSNZj-1">
          <mxGeometry relative="1" as="geometry">
            <mxPoint x="923" y="1480.4390243902437" as="targetPoint" />
            <mxPoint x="883" y="1480" as="sourcePoint" />
          </mxGeometry>
        </mxCell>
        <mxCell id="rSSt28zgrGAlVdXAVA-i-78" style="edgeStyle=orthogonalEdgeStyle;rounded=0;orthogonalLoop=1;jettySize=auto;html=1;" edge="1" parent="io0IvnrYup7PizXmSNZj-1">
          <mxGeometry relative="1" as="geometry">
            <mxPoint x="309" y="1580.4390243902437" as="targetPoint" />
            <mxPoint x="269" y="1580" as="sourcePoint" />
          </mxGeometry>
        </mxCell>
        <mxCell id="rSSt28zgrGAlVdXAVA-i-80" style="edgeStyle=orthogonalEdgeStyle;rounded=0;orthogonalLoop=1;jettySize=auto;html=1;" edge="1" parent="io0IvnrYup7PizXmSNZj-1">
          <mxGeometry relative="1" as="geometry">
            <mxPoint x="309" y="1830.4390243902437" as="targetPoint" />
            <mxPoint x="269" y="1830" as="sourcePoint" />
          </mxGeometry>
        </mxCell>
      </root>
    </mxGraphModel>
  </diagram>
</mxfile>
